<?xml version="1.0" encoding="utf-8"?>
<!-- Generator: Adobe Illustrator 16.0.0, SVG Export Plug-In . SVG Version: 6.00 Build 0)  -->
<!DOCTYPE svg PUBLIC "-//W3C//DTD SVG 1.1//EN" "http://www.w3.org/Graphics/SVG/1.1/DTD/svg11.dtd">
<svg version="1.1" id="图层_1" xmlns="http://www.w3.org/2000/svg" xmlns:xlink="http://www.w3.org/1999/xlink" x="0px" y="0px"
	 width="40px" height="40px" viewBox="0 0 40 40" enable-background="new 0 0 40 40" xml:space="preserve">
<g>
	<path fill="#ffffff" d="M20,2c9.925,0,18,8.075,18,18c0,9.925-8.075,18-18,18c-9.925,0-18-8.075-18-18C2,10.075,10.075,2,20,2
		 M20,0C8.954,0,0,8.954,0,20s8.954,20,20,20s20-8.954,20-20S31.046,0,20,0L20,0z"/>
</g>
<g>
	<g>
		<polygon fill-rule="evenodd" clip-rule="evenodd" fill="#ffffff" points="34.703,12.575 31.875,9.747 17.025,24.596 
			10.125,17.696 7.297,20.525 17.025,30.253 17.025,30.253 17.025,30.253 		"/>
	</g>
</g>
</svg>
