<?xml version="1.0" encoding="utf-8"?>
<!-- Generator: Adobe Illustrator 16.0.0, SVG Export Plug-In . SVG Version: 6.00 Build 0)  -->
<!DOCTYPE svg PUBLIC "-//W3C//DTD SVG 1.1//EN" "http://www.w3.org/Graphics/SVG/1.1/DTD/svg11.dtd">
<svg version="1.1" id="图层_1" xmlns="http://www.w3.org/2000/svg" xmlns:xlink="http://www.w3.org/1999/xlink" x="0px" y="0px"
	 width="34px" height="34px" viewBox="0 0 34 34" enable-background="new 0 0 34 34" xml:space="preserve">
<g>
	<g>
		<path fill="#BEBEBE" d="M17,1c8.822,0,16,7.178,16,16s-7.178,16-16,16S1,25.822,1,17S8.178,1,17,1 M17,0C7.611,0,0,7.611,0,17
			c0,9.39,7.611,17,17,17c9.39,0,17-7.61,17-17C34,7.611,26.39,0,17,0L17,0z"/>
	</g>
	<polygon fill="#BEBEBE" points="18.5,15.5 18.5,5 15.5,5 15.5,17 15.5,17 15.5,18.5 27.501,18.5 27.501,15.5 	"/>
</g>
</svg>
