<?xml version="1.0" encoding="utf-8"?>
<!-- Generator: Adobe Illustrator 16.0.0, SVG Export Plug-In . SVG Version: 6.00 Build 0)  -->
<!DOCTYPE svg PUBLIC "-//W3C//DTD SVG 1.1//EN" "http://www.w3.org/Graphics/SVG/1.1/DTD/svg11.dtd">
<svg version="1.1" id="图层_1" xmlns="http://www.w3.org/2000/svg" xmlns:xlink="http://www.w3.org/1999/xlink" x="0px" y="0px"
	 width="120px" height="120px" viewBox="0 0 120 120" enable-background="new 0 0 120 120" xml:space="preserve">
<circle fill="#FF4138" cx="60" cy="60" r="60"/>
<g>
	<path fill="#FFFFFF" d="M46.02,50.415c2.78-5.7,4.459-10.66,5.04-14.88l2.31,0.78c-0.2,0.48-0.6,1.69-1.2,3.63
		c-1.12,3.62-2.46,7.11-4.02,10.47h6.93c1.3,0,2.4-0.06,3.3-0.18v2.28c-0.9-0.14-2-0.21-3.3-0.21H35.1c-1.4,0-2.55,0.07-3.45,0.21
		v-2.28c0.96,0.12,2.11,0.18,3.45,0.18H46.02z M53.73,32.175c1.44,0,2.59-0.07,3.45-0.21v2.25c-0.98-0.12-2.13-0.18-3.45-0.18H36.15
		c-1.26,0-2.37,0.06-3.33,0.18v-2.25c0.78,0.14,1.89,0.21,3.33,0.21h8.22c-0.8-1.36-1.79-2.71-2.97-4.05l1.65-1.05
		c1.46,1.62,2.53,3.02,3.21,4.2l-1.41,0.9H53.73z M38.82,35.865c1.32,3.62,2.4,7.57,3.24,11.85l-1.95,0.75
		c-0.76-4.38-1.85-8.34-3.27-11.88L38.82,35.865z"/>
	<path fill="#FFFFFF" d="M74.07,52.785c-0.461-1.14-0.92-2.14-1.381-3c-2.279,0.88-5.18,1.8-8.699,2.76
		c-0.281,0.06-0.59,0.16-0.93,0.3l-0.69-1.86c0.579-0.2,0.919-0.62,1.021-1.26v-17.85c0-1.38-0.041-2.479-0.121-3.3
		c0.641,0.08,1.49,0.12,2.551,0.12h6.209c1.08,0,1.931-0.04,2.551-0.12c-0.08,0.62-0.12,1.5-0.12,2.64v8.79c0,0.9,0.03,1.8,0.09,2.7
		c-0.659-0.08-1.489-0.12-2.489-0.12h-6.781v7.83c2.461-0.64,4.641-1.36,6.541-2.16c-0.541-0.88-1.371-2.05-2.49-3.51l1.561-0.84
		c1.899,2.48,3.529,5.08,4.889,7.8L74.07,52.785z M72.63,34.515v-4.11h-7.351v4.11H72.63z M65.279,40.875h7.351v-4.68h-7.351V40.875
		z M87.391,47.565c0,0.94-0.24,1.581-0.721,1.92c-0.48,0.34-1.391,0.51-2.73,0.51c-0.779,0-1.619-0.04-2.52-0.12
		c-0.061-0.76-0.221-1.43-0.48-2.01c1.18,0.2,2.27,0.3,3.271,0.3c0.521,0,0.86-0.06,1.021-0.18c0.159-0.12,0.24-0.38,0.24-0.78
		v-16.8H79.41v20.82c0,1.82,0.061,2.96,0.18,3.42h-2.25c0.1-0.76,0.15-1.88,0.15-3.36v-19.98c0-1.16-0.03-2.07-0.09-2.73
		c0.699,0.08,1.6,0.12,2.699,0.12h4.74c1.02,0,1.92-0.04,2.7-0.12c-0.101,0.62-0.149,1.5-0.149,2.64V47.565z"/>
	<path fill="#FFFFFF" d="M38.25,68.025c-0.08,0.859-0.12,2.129-0.12,3.809v5.221c0,4.121-0.52,7.141-1.56,9.061
		c-0.82,1.48-2.15,2.898-3.99,4.26c-0.42-0.521-0.91-0.99-1.47-1.41c2.06-1.359,3.44-2.76,4.14-4.199
		c0.76-1.58,1.14-4.15,1.14-7.711v-5.16c0-1.719-0.06-3.01-0.18-3.869H38.25z M32.58,83.055c0.06-0.779,0.09-1.68,0.09-2.699v-13.41
		c0-1.141-0.04-2.08-0.12-2.82c0.84,0.061,1.71,0.09,2.61,0.09h4.53c0.98,0,1.74-0.039,2.28-0.121
		c-0.06,0.682-0.09,1.602-0.09,2.762v13.35c0,1.16,0.04,2.109,0.12,2.85h-2.01c0.08-0.699,0.12-1.629,0.12-2.789v-14.4h-5.67v14.49
		c0,0.979,0.03,1.879,0.09,2.699H32.58z M41.04,89.504c-0.8-1.68-1.77-3.289-2.91-4.83l1.44-0.93c1,1.26,2.04,2.791,3.12,4.59
		L41.04,89.504z M46.59,69.375c-0.82,1.84-1.89,3.551-3.21,5.129c-0.34-0.439-0.81-0.859-1.41-1.26c1.62-1.779,2.89-3.99,3.81-6.629
		c0.5-1.461,0.79-2.641,0.87-3.541l2.07,0.51c-0.041,0.08-0.23,0.611-0.57,1.59c-0.26,0.881-0.55,1.721-0.87,2.521h8.22
		c1.06,0,1.939-0.041,2.64-0.121c-0.08,0.58-0.12,1.361-0.12,2.34c-0.12,7.182-0.47,12.41-1.05,15.691
		c-0.36,1.879-0.84,3.068-1.44,3.568c-0.52,0.4-1.52,0.602-3,0.602c-0.72,0-1.88-0.061-3.48-0.182c-0.04-0.619-0.2-1.289-0.48-2.01
		c1.5,0.262,2.88,0.391,4.14,0.391c1.02,0,1.64-0.24,1.86-0.721c0.94-2.139,1.46-8.1,1.56-17.879H46.59z M52.92,84.314
		c-0.2-0.879-0.4-1.67-0.6-2.369l-0.24,0.059c-1.34,0.342-2.64,0.611-3.9,0.811c-1.02,0.16-2.38,0.43-4.08,0.811l-0.33-1.74
		c0.68-0.221,1.17-0.709,1.47-1.471c0.459-1.1,1.009-2.969,1.65-5.609c0.26-1.061,0.45-2.109,0.57-3.15l1.98,0.451
		c-0.1,0.279-0.56,1.92-1.38,4.92c-0.34,1.18-0.851,2.67-1.53,4.469c0.44-0.1,1.4-0.279,2.88-0.539c0.48-0.061,1.29-0.23,2.43-0.51
		c-0.5-1.461-1.09-2.84-1.77-4.141l1.5-0.66c1.14,2.32,2.14,4.949,3,7.891L52.92,84.314z"/>
	<path fill="#FFFFFF" d="M84.87,79.305c1.56,0,2.68-0.061,3.36-0.18v2.219c-0.98-0.119-2.101-0.18-3.36-0.18h-8.431
		c-0.92,2.781-2.92,4.941-6,6.48c-1.96,0.98-4.57,1.811-7.83,2.49c-0.319-0.779-0.76-1.43-1.319-1.949
		c3.579-0.48,6.56-1.381,8.94-2.701c2.059-1.141,3.43-2.58,4.109-4.32H65.1c-1.359,0-2.449,0.061-3.27,0.18v-2.219
		c0.779,0.119,1.869,0.18,3.27,0.18h9.75c0.439-2.02,0.66-4.65,0.66-7.891c0-1.139-0.08-2.08-0.24-2.82h2.461
		c-0.121,0.762-0.191,1.701-0.211,2.82c-0.04,2.682-0.26,5.311-0.66,7.891H84.87z M63.15,64.725c0.779,0.119,1.869,0.18,3.27,0.18
		h17.43c1.301,0,2.221-0.049,2.76-0.15l1.08,1.111c-0.1,0.199-0.289,0.68-0.569,1.439c-0.56,1.68-1.38,3.391-2.46,5.131
		c-0.62-0.4-1.271-0.67-1.95-0.811c0.96-1.32,1.79-2.949,2.49-4.891H66.42c-1.36,0-2.45,0.061-3.27,0.18V64.725z M70.65,77.594
		c-2.16-1.199-4.461-2.189-6.9-2.969l1.17-1.621c2.6,0.84,4.891,1.801,6.87,2.881L70.65,77.594z M72.6,73.154
		c-2.08-1.26-4.25-2.299-6.51-3.119l1.17-1.531c2.141,0.762,4.27,1.752,6.391,2.971L72.6,73.154z M77.16,83.025
		c4.039,1.58,7.84,3.34,11.4,5.279l-1.23,1.801c-3.26-1.941-6.99-3.76-11.189-5.461L77.16,83.025z"/>
</g>
</svg>
