<?xml version="1.0" encoding="utf-8"?>
<!-- Generator: Adobe Illustrator 16.0.0, SVG Export Plug-In . SVG Version: 6.00 Build 0)  -->
<!DOCTYPE svg PUBLIC "-//W3C//DTD SVG 1.1//EN" "http://www.w3.org/Graphics/SVG/1.1/DTD/svg11.dtd">
<svg version="1.1" id="图层_1" xmlns="http://www.w3.org/2000/svg" xmlns:xlink="http://www.w3.org/1999/xlink" x="0px" y="0px"
	 width="180px" height="70px" viewBox="0 0 180 70" enable-background="new 0 0 180 70" xml:space="preserve">
<path fill-rule="evenodd" clip-rule="evenodd" fill="#7DDBD1" d="M179.987,60V0h-180v60l89,10L179.987,60z"/>
<path fill-rule="evenodd" clip-rule="evenodd" fill="#6CD1C6" d="M89,0H0v60l89,10V0z"/>
<g>
	<path fill="#FFFFFF" d="M34.937,31.761c0-1.08,0.03-2.28,0.09-3.6c-0.74,1.36-1.79,2.77-3.15,4.23c-0.42-0.68-0.83-1.25-1.23-1.71
		c2.58-2.56,4.52-5.54,5.82-8.94c0.64-1.62,1.04-3,1.2-4.14l2.04,0.66c-0.161,0.36-0.34,0.9-0.54,1.62
		c-0.54,1.661-1.34,3.53-2.4,5.61v15.96c0,1.439,0.05,2.609,0.15,3.51h-2.16c0.12-1.141,0.18-2.34,0.18-3.6V31.761z M55.367,31.581
		c1.12,0,2.1-0.06,2.94-0.18v2.04c-1.02-0.12-1.99-0.18-2.91-0.18h-5.64c1.42,1.84,2.77,3.27,4.05,4.29
		c1.66,1.36,3.47,2.48,5.43,3.36c-0.48,0.5-0.93,1.12-1.35,1.86c-1.84-1.12-3.43-2.27-4.77-3.451c-1.42-1.219-2.76-2.76-4.02-4.619
		c0.1,1.04,0.15,2.11,0.15,3.21v4.11c0,1.239,0.06,2.22,0.18,2.939h-2.16c0.12-0.94,0.18-1.92,0.18-2.939v-4.08
		c0-1.42,0.04-2.5,0.12-3.24c-1.24,1.96-2.76,3.7-4.56,5.22c-1.3,1.12-2.68,2.091-4.14,2.91c-0.38-0.62-0.84-1.18-1.38-1.681
		c2.16-1.039,4.12-2.35,5.88-3.93c1.1-1,2.25-2.319,3.45-3.959h-5.19c-1.14,0-2.13,0.06-2.97,0.18v-2.04
		c0.88,0.12,1.87,0.18,2.97,0.18h5.82v-3.18h-3.33c-1.26,0-2.32,0.041-3.18,0.12c0.08-1.08,0.12-1.98,0.12-2.7v-3.9
		c0-1-0.04-1.89-0.12-2.67c0.7,0.1,1.8,0.15,3.3,0.15h8.85c1.5,0,2.6-0.05,3.3-0.15c-0.08,0.62-0.12,1.53-0.12,2.73v3.87
		c0,1.08,0.04,1.97,0.12,2.67c-0.92-0.08-1.97-0.12-3.15-0.12h-3.99v3.18H55.367z M42.917,26.691h11.46v-5.58h-11.46V26.691z"/>
	<path fill="#FFFFFF" d="M62.657,21.291c0-1.16-0.04-2.01-0.12-2.55c0.5,0.08,1.18,0.12,2.04,0.12h3.51c0.88,0,1.52-0.04,1.92-0.12
		l1.17,1.23l-0.48,1.02c-1.12,2.66-2.15,4.78-3.09,6.36c1.18,1.32,1.97,2.52,2.37,3.6c0.399,1.02,0.6,2.07,0.6,3.15
		c0,1.76-0.46,2.85-1.38,3.27c-0.54,0.2-1.35,0.3-2.43,0.3c-0.42,0-0.83-0.02-1.23-0.06c0-0.68-0.1-1.291-0.3-1.831
		c0.7,0.12,1.31,0.18,1.83,0.18c0.66,0,1.1-0.13,1.32-0.39c0.22-0.28,0.33-0.82,0.33-1.62c0-1.08-0.23-2.09-0.69-3.03
		c-0.44-1.02-1.3-2.149-2.58-3.39c1.4-2.28,2.58-4.62,3.54-7.02h-4.53v21.15c0,1.5,0.04,2.569,0.12,3.21h-2.1
		c0.12-0.82,0.18-1.9,0.18-3.24V21.291z M80.207,17.871c-0.041,0.12-0.101,0.26-0.18,0.42c0.66,1.3,1.36,2.44,2.1,3.42
		c1.54,2.16,3.94,4.14,7.2,5.94c-0.42,0.4-0.83,0.95-1.23,1.65c-1.8-1.14-3.17-2.1-4.11-2.88v1.8c-0.78-0.08-1.71-0.12-2.79-0.12
		h-4.29c-1.16,0-2.1,0.04-2.82,0.12v-1.5c-0.84,0.7-1.94,1.52-3.3,2.46c-0.38-0.64-0.81-1.16-1.29-1.56
		c4.26-2.48,7.24-5.97,8.94-10.47L80.207,17.871z M84.917,42.051c1.24,0,2.34-0.06,3.3-0.18v2.16c-0.76-0.12-1.86-0.18-3.3-0.18
		h-11.97c-1.28,0-2.39,0.06-3.33,0.18v-2.16c0.96,0.12,2.07,0.18,3.33,0.18h7.32l0.81-1.289c2.18-3.381,3.59-6.73,4.23-10.051
		l2.01,0.78c-0.12,0.28-0.371,0.91-0.75,1.89c-1.28,3.381-2.68,6.27-4.2,8.67H84.917z M74.807,39.171c-0.82-2.419-1.82-4.669-3-6.75
		l1.68-0.75c1.18,2.141,2.209,4.37,3.09,6.69L74.807,39.171z M81.317,26.451c0.979,0,1.84-0.04,2.58-0.12
		c-1.36-1.16-2.94-3.22-4.74-6.18c-1.28,2.4-2.84,4.47-4.68,6.21c0.64,0.06,1.41,0.09,2.31,0.09H81.317z M79.517,37.971
		c-0.54-2.4-1.34-4.75-2.4-7.05l1.8-0.54c1.12,2.6,1.93,4.94,2.43,7.02L79.517,37.971z"/>
	<path fill="#FFFFFF" d="M114.347,20.271c1.22,0,2.28-0.06,3.18-0.18v1.95c-0.899-0.08-1.96-0.12-3.18-0.12h-2.37
		c0.08-0.2-0.06,0.21-0.42,1.23c-0.479,1.521-0.979,2.79-1.5,3.81h4.08c1.42,0,2.64-0.06,3.66-0.18v2.01
		c-0.82-0.1-2.051-0.15-3.69-0.15h-18.18c-0.021,4.26-0.261,7.56-0.72,9.9c-0.5,2.46-1.391,4.68-2.67,6.66
		c-0.48-0.66-0.971-1.17-1.471-1.53c1.12-1.659,1.88-3.45,2.28-5.37c0.46-2.32,0.69-5.239,0.69-8.76c0-1-0.041-1.91-0.12-2.73
		c0.68,0.1,1.78,0.15,3.3,0.15h3.66c-0.54-2.26-1.061-3.94-1.561-5.04h-2.939c-1.2,0-2.211,0.041-3.03,0.12v-1.95
		c0.819,0.12,1.84,0.18,3.06,0.18h7.771c-0.58-0.96-1.02-1.63-1.32-2.01l1.65-0.96c0.36,0.48,0.91,1.34,1.65,2.58l0.239,0.39
		H114.347z M108.106,26.961c0.42-0.76,0.87-1.95,1.351-3.57l0.45-1.47h-8.61c0.26,0.581,0.55,1.48,0.87,2.7
		c0.22,0.78,0.45,1.56,0.689,2.34H108.106z"/>
	<path fill="#FFFFFF" d="M122.507,34.701c0-1.14-0.04-2.11-0.119-2.91c0.779,0.08,1.699,0.12,2.76,0.12h5.67
		c0.84,0,1.65-0.03,2.43-0.09c-0.06,0.62-0.09,1.56-0.09,2.82v6.929c0,1.32,0.04,2.301,0.12,2.941h-1.95v-1.32h-6.96v1.89h-2.01
		c0.1-0.66,0.149-1.7,0.149-3.12V34.701z M124.367,41.512h6.96v-7.921h-6.96V41.512z M126.827,21.261c0-0.98-0.04-1.82-0.12-2.52
		c0.78,0.1,1.9,0.15,3.36,0.15h9.81c1.58,0,2.71-0.05,3.391-0.15c-0.08,0.7-0.12,1.53-0.12,2.49v5.07c0,1.121,0.04,2,0.12,2.64
		c-0.74-0.08-1.79-0.12-3.15-0.12h-10.229c-1.4,0-2.46,0.041-3.181,0.12c0.08-0.72,0.12-1.59,0.12-2.61V21.261z M128.718,27.111
		h12.51v-6.51h-12.51V27.111z M136.127,34.401c0-1.24-0.029-2.1-0.09-2.58c0.76,0.06,1.57,0.09,2.431,0.09h6.6
		c1.08,0,1.939-0.04,2.58-0.12c-0.08,0.7-0.12,1.68-0.12,2.94v7.23c0,1.46,0.05,2.5,0.15,3.12h-2.04v-1.89h-7.681v1.89h-1.95
		c0.08-0.7,0.12-1.681,0.12-2.94V34.401z M137.957,41.512h7.71v-7.921h-7.71V41.512z"/>
</g>
</svg>
