<?xml version="1.0" encoding="utf-8"?>
<!-- Generator: Adobe Illustrator 16.0.0, SVG Export Plug-In . SVG Version: 6.00 Build 0)  -->
<!DOCTYPE svg PUBLIC "-//W3C//DTD SVG 1.1//EN" "http://www.w3.org/Graphics/SVG/1.1/DTD/svg11.dtd">
<svg version="1.1" id="图层_1" xmlns="http://www.w3.org/2000/svg" xmlns:xlink="http://www.w3.org/1999/xlink" x="0px" y="0px"
	 width="180px" height="70px" viewBox="0 0 180 70" enable-background="new 0 0 180 70" xml:space="preserve">
<path fill-rule="evenodd" clip-rule="evenodd" fill="#FF9381" d="M179.987,60V0h-180v60l89,10L179.987,60z"/>
<path fill-rule="evenodd" clip-rule="evenodd" fill="#F98875" d="M89,0H0v60l89,10V0z"/>
<g>
	<path fill="#FFFFFF" d="M39.107,27.891c0.96,0,1.669-0.04,2.13-0.12v1.86c-0.56-0.08-1.271-0.12-2.13-0.12h-1.17v1.29l0.6,0.6
		c1.12,1.121,2.35,2.63,3.69,4.53l-1.26,1.29c-0.9-1.56-1.91-3.02-3.03-4.38v8.94c0,1.6,0.06,2.709,0.18,3.33h-2.1
		c0.12-0.84,0.18-1.95,0.18-3.33V36.98c0-1.459,0.04-3.029,0.12-4.709c-0.82,3.3-2.06,6.161-3.72,8.581
		c-0.34-0.68-0.72-1.23-1.14-1.65c1.24-1.48,2.31-3.34,3.21-5.58c0.56-1.38,1-2.75,1.32-4.11h-1.68c-0.94,0-1.66,0.04-2.16,0.12
		v-1.86c0.459,0.08,1.18,0.12,2.16,0.12h1.89v-6.93c0-1.36-0.06-2.44-0.18-3.24h2.07c-0.101,0.62-0.15,1.69-0.15,3.21v6.96H39.107z
		 M33.287,19.941c0.68,1.62,1.28,3.59,1.8,5.91l-1.47,0.63c-0.5-2.38-1.1-4.37-1.8-5.97L33.287,19.941z M41.807,20.361
		c-0.42,2.3-0.95,4.32-1.59,6.06l-1.35-0.57c0.66-1.82,1.12-3.84,1.38-6.06L41.807,20.361z M48.767,20.181
		c0-0.76-0.06-1.56-0.18-2.4h2.07c-0.1,0.68-0.15,1.48-0.15,2.4v0.06h4.41c1.26,0,2.229-0.06,2.91-0.18v1.83
		c-0.68-0.1-1.63-0.15-2.85-0.15h-4.47v2.1h3.39c1.2,0,2.13-0.04,2.79-0.12v1.68c-0.86-0.08-1.791-0.12-2.79-0.12h-3.39v2.22h5.04
		c1.2,0,2.2-0.06,3-0.18v1.89c-0.7-0.12-1.7-0.18-3-0.18h-10.59c-1.36,0-2.38,0.06-3.06,0.18v-1.89c0.76,0.12,1.78,0.18,3.06,0.18
		h3.81v-2.22h-2.85c-1.1,0-2.01,0.05-2.73,0.15v-1.71c0.64,0.08,1.549,0.12,2.73,0.12h2.85v-2.1h-3.42c-1.16,0-2.08,0.05-2.76,0.15
		v-1.83c0.78,0.12,1.72,0.18,2.82,0.18h3.36V20.181z M45.077,41.871c0,1.561,0.05,2.641,0.15,3.24h-2.07
		c0.1-0.86,0.15-1.94,0.15-3.24v-8.52c0-0.96-0.03-1.83-0.09-2.61c0.66,0.08,1.59,0.12,2.79,0.12h7.59c1.34,0,2.26-0.049,2.76-0.15
		c-0.08,0.64-0.12,1.71-0.12,3.21v8.61c0,0.859-0.18,1.459-0.54,1.8c-0.38,0.34-1.04,0.51-1.98,0.51c-1,0-2.03-0.04-3.09-0.12
		c-0.08-0.641-0.25-1.27-0.51-1.89c1.26,0.22,2.35,0.33,3.27,0.33c0.44,0,0.73-0.05,0.87-0.149c0.14-0.121,0.21-0.34,0.21-0.66
		v-2.431h-9.39V41.871z M54.467,34.611v-2.22h-9.39v2.22H54.467z M54.467,38.421v-2.31h-9.39v2.31H54.467z"/>
	<path fill="#FFFFFF" d="M66.377,30.951h-2.46c-0.88,0-1.61,0.05-2.19,0.15v-1.95c0.56,0.101,1.33,0.15,2.31,0.15h2.07
		c0.9,0,1.65-0.049,2.25-0.15c-0.08,0.8-0.12,1.811-0.12,3.03v7.32l0.45,0.39c1.16,1.021,2.27,1.65,3.33,1.891
		c1.26,0.26,3.56,0.39,6.9,0.39c4.339,0,7.759-0.159,10.26-0.479c-0.32,0.619-0.55,1.34-0.69,2.16c-3,0.119-6.48,0.18-10.44,0.18
		c-3.5,0-5.92-0.25-7.26-0.75c-0.74-0.24-1.36-0.561-1.86-0.961c-0.1-0.059-0.46-0.389-1.08-0.989c-0.36-0.3-0.68-0.45-0.96-0.45
		c-0.62,0-1.51,0.59-2.67,1.77c-0.66,0.66-1.22,1.25-1.68,1.771l-1.5-1.38c2.34-2.3,4.12-3.609,5.34-3.93V30.951z M63.917,18.501
		c1.66,1.58,3.24,3.32,4.74,5.22l-1.56,1.38c-1.46-2.08-2.99-3.87-4.59-5.37L63.917,18.501z M83.957,21.711
		c1.38,0,2.34-0.05,2.88-0.15v2.01c-0.82-0.08-1.78-0.12-2.88-0.12h-3.93v4.08h5.64c0.939,0,1.8-0.049,2.58-0.15v2.01
		c-0.7-0.1-1.55-0.15-2.55-0.15h-3.78v7.47c0,0.62,0.729,0.93,2.19,0.93c1,0,1.62-0.119,1.86-0.359l0.06-0.061
		c0.02-0.02,0.04-0.029,0.06-0.029c0.26-0.461,0.42-1.771,0.48-3.93c0.66,0.34,1.27,0.56,1.83,0.66c-0.08,0.56-0.13,1.09-0.15,1.59
		c-0.14,1.76-0.46,2.84-0.96,3.24c-0.54,0.46-1.62,0.69-3.24,0.69c-1.48,0-2.49-0.121-3.03-0.36c-0.54-0.24-0.81-0.69-0.81-1.351
		v-8.489h-2.76c-0.22,2.44-0.91,4.47-2.07,6.09c-1.16,1.62-2.87,3.011-5.13,4.17l-0.18-0.239c-0.34-0.521-0.66-0.92-0.96-1.201
		c2-0.959,3.52-2.1,4.56-3.419c1.1-1.42,1.77-3.22,2.01-5.4h-3.09c-0.88,0-1.8,0.05-2.76,0.15v-2.01c0.86,0.101,1.76,0.15,2.7,0.15
		h5.7v-4.08h-4.59c-0.5,0.86-1.1,1.69-1.8,2.49c-0.38-0.439-0.87-0.82-1.47-1.14c0.92-0.979,1.64-2.029,2.16-3.15
		c0.52-1.08,0.85-2.08,0.99-3l1.95,0.42c-0.12,0.28-0.25,0.62-0.39,1.02c-0.3,0.8-0.53,1.34-0.69,1.62h3.84v-1.41
		c0-0.84-0.06-1.65-0.18-2.43h2.16c-0.12,0.64-0.18,1.45-0.18,2.43v1.41H83.957z"/>
	<path fill="#FFFFFF" d="M110.177,20.751v-0.18c0-1.12-0.06-1.99-0.18-2.61h2.16c-0.101,0.6-0.15,1.47-0.15,2.61v0.18h2.76
		c1.22,0,2.23-0.06,3.03-0.18v1.95c-1.061-0.1-2.07-0.15-3.03-0.15h-2.76v9.63h3.3c1.2,0,2.22-0.06,3.061-0.18v1.95
		c-0.86-0.12-1.86-0.18-3-0.18h-4.53c1.939,1.86,4.729,3.24,8.37,4.14c-0.4,0.541-0.75,1.15-1.05,1.83
		c-4.041-1.34-7.24-3.33-9.601-5.97h-7.41c-2.061,2.62-5.141,4.65-9.24,6.091c-0.22-0.601-0.569-1.201-1.049-1.801
		c3.66-0.859,6.35-2.29,8.07-4.29h-4.38c-1.16,0-2.16,0.06-3,0.18v-1.95c0.82,0.12,1.81,0.18,2.97,0.18h3.271v-9.63h-2.25
		c-0.98,0-1.99,0.05-3.03,0.15v-1.95c0.78,0.12,1.79,0.18,3.03,0.18h2.25v-0.18c0-1.12-0.061-1.99-0.18-2.61h2.159
		c-0.101,0.8-0.149,1.67-0.149,2.61v0.18H110.177z M109.877,37.311c1.04,0,1.909-0.039,2.61-0.119v1.859
		c-0.66-0.08-1.53-0.119-2.61-0.119h-4.29v3.33h8.22c1.42,0,2.47-0.051,3.15-0.15v1.979c-0.92-0.12-1.99-0.18-3.21-0.18H96.496
		c-1.24,0-2.33,0.06-3.27,0.18v-1.979c0.76,0.1,1.83,0.15,3.211,0.15h7.379v-3.33h-3.689c-1.02,0-1.891,0.039-2.61,0.119v-1.859
		c0.64,0.08,1.511,0.119,2.61,0.119h3.689v-0.27c0-0.84-0.05-1.64-0.149-2.4h2.07c-0.101,0.58-0.15,1.38-0.15,2.4v0.27H109.877z
		 M99.617,24.531h10.56v-2.16h-10.56V24.531z M99.617,28.221h10.56v-2.13h-10.56V28.221z M99.617,32.001h10.56v-2.22h-10.56V32.001z
		"/>
	<path fill="#FFFFFF" d="M135.857,18.651c1.359,1.7,2.739,3.12,4.14,4.26c2.561,2.08,5.45,3.69,8.67,4.83
		c-0.5,0.66-0.859,1.32-1.08,1.98c-1.859-0.88-3.68-1.88-5.46-3v1.71c-0.64-0.1-1.56-0.15-2.76-0.15h-3.66v4.08h8.04
		c1.12,0,2.101-0.06,2.94-0.18v2.1c-0.86-0.12-1.841-0.18-2.94-0.18h-8.04v7.92h8.851c1.239,0,2.34-0.061,3.3-0.181v2.16
		c-0.92-0.14-2.021-0.21-3.3-0.21h-19.021c-1.18,0-2.33,0.07-3.45,0.21v-2.16c1.021,0.12,2.16,0.181,3.42,0.181h8.25v-7.92h-7.5
		c-1.1,0-2.069,0.06-2.909,0.18v-2.1c0.84,0.12,1.81,0.18,2.909,0.18h7.5v-4.08h-3.239c-1.181,0-2.11,0.05-2.79,0.15v-1.92
		c-0.801,0.54-2.57,1.57-5.311,3.09l-0.51-0.75c0-0.04-0.11-0.17-0.33-0.39l-0.42-0.57c2.8-1.08,5.2-2.43,7.2-4.05
		c2.38-1.939,4.42-4.15,6.12-6.63l1.77,0.93L135.857,18.651z M127.817,35.031c0.9,1.52,1.77,3.331,2.61,5.43l-1.74,0.689
		c-0.681-1.979-1.551-3.76-2.61-5.339L127.817,35.031z M139.367,26.631c1.1,0,1.92-0.04,2.46-0.12c-2.9-1.9-5.25-4.05-7.05-6.45
		c-2.12,2.58-4.45,4.72-6.99,6.42l0.3,0.06c0.46,0.06,1.261,0.09,2.4,0.09H139.367z M143.718,35.871
		c-1.08,2.16-2.15,4.02-3.211,5.58l-1.68-0.689c1.2-1.561,2.2-3.451,3-5.671L143.718,35.871z"/>
</g>
</svg>
