<?xml version="1.0" encoding="utf-8"?>
<!-- Generator: Adobe Illustrator 16.0.0, SVG Export Plug-In . SVG Version: 6.00 Build 0)  -->
<!DOCTYPE svg PUBLIC "-//W3C//DTD SVG 1.1//EN" "http://www.w3.org/Graphics/SVG/1.1/DTD/svg11.dtd">
<svg version="1.1" id="图层_1" xmlns="http://www.w3.org/2000/svg" xmlns:xlink="http://www.w3.org/1999/xlink" x="0px" y="0px"
	 width="180px" height="70px" viewBox="0 0 180 70" enable-background="new 0 0 180 70" xml:space="preserve">
<path fill-rule="evenodd" clip-rule="evenodd" fill="#FFD57A" d="M179.987,60V0h-180v60l89,10L179.987,60z"/>
<path fill-rule="evenodd" clip-rule="evenodd" fill="#F6C65F" d="M89,0H0v60l89,10V0z"/>
<g>
	<path fill="#FFFFFF" d="M36.047,36.23c-0.98,2.541-2.19,4.73-3.63,6.57c-0.18-0.119-0.41-0.289-0.69-0.51
		c-0.18-0.14-0.48-0.34-0.9-0.6c1.52-1.76,2.69-3.78,3.51-6.061L36.047,36.23z M42.947,27.501c1.04,0,1.85-0.05,2.43-0.15v2.01
		c-0.6-0.1-1.41-0.15-2.43-0.15h-8.91c-1.06,0-1.89,0.05-2.49,0.15v-2.01c0.58,0.1,1.41,0.15,2.49,0.15h5.37
		c0.96-1.66,1.63-3.3,2.01-4.92l1.8,0.57c-0.66,1.72-1.34,3.17-2.04,4.35H42.947z M34.067,34.191c-1.061,0-1.89,0.06-2.49,0.18
		v-1.98c0.56,0.12,1.4,0.18,2.52,0.18h3.69v-1.38c0-0.34-0.04-0.75-0.12-1.23h1.98c-0.08,0.48-0.12,0.89-0.12,1.23v1.38h3.3
		c0.98,0,1.78-0.06,2.4-0.18v1.95c-0.581-0.1-1.38-0.15-2.4-0.15h-3.3v8.37c0,0.801-0.18,1.34-0.54,1.621
		c-0.38,0.279-1.11,0.42-2.19,0.42c-0.78,0-1.41-0.031-1.89-0.09v-0.271c0-0.421-0.13-0.94-0.39-1.56c0.92,0.18,1.68,0.27,2.28,0.27
		c0.66,0,0.99-0.21,0.99-0.631v-8.129H34.067z M37.847,20.601c-0.38-0.72-0.93-1.53-1.65-2.43l1.77-0.66
		c0.86,1.28,1.5,2.31,1.92,3.09h2.37c1.06,0,1.89-0.05,2.49-0.15v2.01c-0.68-0.1-1.52-0.15-2.52-0.15h-7.47
		c-1.061,0-1.93,0.05-2.61,0.15v-2.01c0.58,0.1,1.459,0.15,2.64,0.15H37.847z M35.597,27.231c-0.44-1.48-1.01-2.82-1.71-4.02
		l1.59-0.6c0.7,1.24,1.26,2.59,1.68,4.05L35.597,27.231z M42.167,35.541c1.16,1.541,2.1,3.029,2.82,4.471l-1.62,0.989
		c-0.68-1.76-1.56-3.35-2.64-4.771L42.167,35.541z M48.527,29.031c-0.02,0.26-0.03,0.65-0.03,1.17c-0.04,4.26-0.6,7.85-1.68,10.77
		c-0.54,1.461-1.29,2.83-2.25,4.11c-0.56-0.54-1.121-0.96-1.68-1.261c1.3-1.619,2.23-3.52,2.79-5.699c0.64-2.5,0.96-7,0.96-13.5
		c0-1.9-0.05-3.27-0.15-4.11h0.36c1.8,0,4.17-0.46,7.11-1.38c1.2-0.4,2.12-0.83,2.76-1.29l1.53,1.68c-0.2,0.06-0.57,0.2-1.11,0.42
		c-2.16,0.9-5.03,1.64-8.61,2.22v5.13h7.62c1.14,0,2.05-0.06,2.73-0.18v2.07c-0.6-0.1-1.47-0.15-2.61-0.15h-1.11v13.081
		c0,1.399,0.06,2.4,0.18,3h-2.31c0.12-0.78,0.18-1.781,0.18-3V29.031H48.527z"/>
	<path fill="#FFFFFF" d="M76.097,26.751h7.26c1.26,0,2.32-0.06,3.18-0.18v2.1c-0.84-0.12-1.9-0.18-3.18-0.18h-7.26v4.71h8.58
		c1.24,0,2.29-0.06,3.15-0.18v2.13c-0.92-0.12-1.97-0.18-3.15-0.18h-8.58V41.9c0,0.92-0.23,1.551-0.69,1.891
		c-0.44,0.32-1.31,0.48-2.61,0.48c-1.36,0-2.85-0.09-4.47-0.271c-0.06-0.601-0.24-1.29-0.54-2.069c1.98,0.34,3.67,0.51,5.07,0.51
		c0.859,0,1.29-0.29,1.29-0.871v-6.599h-9.24c-1.2,0-2.25,0.06-3.15,0.18v-2.13c0.84,0.12,1.89,0.18,3.15,0.18h9.24v-4.71h-7.56
		c-1.22,0-2.28,0.06-3.18,0.18v-2.1c0.88,0.12,1.94,0.18,3.18,0.18h7.56v-4.77c-0.06,0.02-0.13,0.03-0.21,0.03
		c-3.26,0.42-6.47,0.67-9.63,0.75c-0.14-0.56-0.4-1.18-0.78-1.86h0.6c9.1,0,15.589-1,19.47-3l1.65,1.77
		c-3.56,1.02-6.61,1.7-9.15,2.04V26.751z"/>
	<path fill="#FFFFFF" d="M101.657,28.131c-0.601,1.541-1.161,2.87-1.681,3.99h11.221c1.199,0,2.05-0.05,2.55-0.15l1.319,1.47
		c-0.34,0.22-1.39,1.16-3.149,2.821c-2.101,2-3.95,3.619-5.55,4.859c3.1,1.58,4.659,2.37,4.68,2.37l-1.11,1.86
		c-3.58-2.301-7.6-4.221-12.06-5.761l0.9-1.56c2.279,0.8,4.239,1.55,5.88,2.25c2.04-1.6,4.359-3.75,6.96-6.45H99.646l-2.789,0.18
		c0.999-1.7,1.93-3.66,2.789-5.88h-5.039c-0.98,0-2.011,0.06-3.091,0.18v-2.13c0.841,0.12,1.87,0.18,3.091,0.18h5.67
		c0.299-0.82,0.709-2.08,1.229-3.78h-4.95c-1.14,0-2.061,0.05-2.76,0.15v-2.01c0.68,0.1,1.609,0.15,2.79,0.15h5.37
		c0.34-1.36,0.54-2.49,0.6-3.39l2.34,0.24c-0.14,0.44-0.439,1.49-0.899,3.15h9.029c1.181,0,2.09-0.05,2.73-0.15v2.01
		c-0.7-0.1-1.61-0.15-2.73-0.15h-9.51c-0.2,0.78-0.6,2.04-1.2,3.78h12.33c1.24,0,2.28-0.06,3.12-0.18v2.13
		c-1.1-0.12-2.14-0.18-3.12-0.18H101.657z"/>
	<path fill="#FFFFFF" d="M134.147,36.831c0-0.76-0.03-1.3-0.09-1.62h1.319c2.16-0.56,4.051-1.23,5.67-2.01
		c-1.22,0.08-2.41,0.12-3.569,0.12h-10.05c-1.181,0-2.11,0.05-2.79,0.15v-1.89c0.76,0.1,1.71,0.15,2.85,0.15h13.71
		c1.279,0,2.12-0.04,2.521-0.12l0.93,1.08c-2.44,1.56-5.301,2.78-8.58,3.661v0.6h9.42c1.2,0,2.19-0.061,2.97-0.18v1.979
		c-0.84-0.12-1.83-0.181-2.97-0.181h-9.42v3.99c0,0.881-0.21,1.48-0.63,1.801c-0.44,0.34-1.23,0.51-2.37,0.51
		c-1.24,0-2.55-0.061-3.93-0.18c-0.08-0.66-0.24-1.281-0.48-1.86c1.62,0.239,3.01,0.36,4.17,0.36c0.88,0,1.32-0.281,1.32-0.84V38.57
		h-9.601c-1.12,0-2.12,0.061-3,0.181v-1.979c0.761,0.119,1.75,0.18,2.971,0.18h9.63V36.831z M145.188,20.301
		c1.12,0,2.109-0.06,2.97-0.18v1.98c-0.94-0.1-1.931-0.15-2.97-0.15h-20.19c-1.08,0-2.069,0.05-2.97,0.15v-1.98
		c0.88,0.12,1.88,0.18,3,0.18h8.79c-0.561-0.76-1.17-1.489-1.83-2.19l1.71-0.9c0.9,0.94,1.7,1.97,2.4,3.09H145.188z M125.747,25.551
		c0-0.72-0.029-1.31-0.09-1.77c0.82,0.06,1.68,0.09,2.58,0.09h13.35c1.1,0,1.98-0.03,2.641-0.09c-0.061,0.5-0.09,1.07-0.09,1.71
		v2.67c0,0.66,0.029,1.23,0.09,1.71c-0.801-0.06-1.67-0.09-2.61-0.09h-13.47c-0.9,0-1.73,0.03-2.49,0.09
		c0.061-0.54,0.09-1.15,0.09-1.83V25.551z M127.577,28.251h14.73v-2.85h-14.73V28.251z"/>
</g>
</svg>
