<?xml version="1.0" encoding="utf-8"?>
<!-- Generator: Adobe Illustrator 16.0.0, SVG Export Plug-In . SVG Version: 6.00 Build 0)  -->
<!DOCTYPE svg PUBLIC "-//W3C//DTD SVG 1.1//EN" "http://www.w3.org/Graphics/SVG/1.1/DTD/svg11.dtd">
<svg version="1.1" id="图层_1" xmlns="http://www.w3.org/2000/svg" xmlns:xlink="http://www.w3.org/1999/xlink" x="0px" y="0px"
	 width="750px" height="330px" viewBox="0 0 750 330" enable-background="new 0 0 750 330" xml:space="preserve">
<linearGradient id="SVGID_1_" gradientUnits="userSpaceOnUse" x1="374.9995" y1="0" x2="374.9995" y2="330.0005">
	<stop  offset="0" style="stop-color:#FFFFFF"/>
	<stop  offset="1" style="stop-color:#FFF7E7"/>
</linearGradient>
<rect x="0" fill="url(#SVGID_1_)" width="750" height="330"/>
<g opacity="0.28">
	<g>
		<g>
			<path fill-rule="evenodd" clip-rule="evenodd" fill="#FFDDBE" d="M648.5,168.24h-129c-2.762,0-5,2.238-5,5v100
				c0,2.762,2.238,5,5,5h129c2.762,0,5-2.238,5-5v-100C653.5,170.479,651.262,168.24,648.5,168.24z M648.5,135.24h-129
				c-2.762,0-5,2.238-5,5v18c0,2.762,2.238,5,5,5h129c2.762,0,5-2.238,5-5v-18C653.5,137.479,651.262,135.24,648.5,135.24z"/>
		</g>
	</g>
	<g>
		<g>
			<path fill-rule="evenodd" clip-rule="evenodd" fill="#F3C498" d="M664.502,125.078c-11.852-3.479-32.237-0.821-49.839,2.761
				c5.114-3.201,9.898-6.887,13.57-10.583c12.69-12.774,17.28-28.865,10.252-35.94c-7.029-7.075-23.015-2.455-35.706,10.319
				c-7.023,7.07-14.622,17.62-18.822,26.834c-4.219-9.106-11.757-19.484-18.729-26.457c-12.691-12.691-28.679-17.282-35.709-10.252
				c-7.029,7.03-2.438,23.017,10.254,35.709c3.672,3.672,8.46,7.333,13.577,10.516c-17.604-3.56-37.995-6.202-49.85-2.744
				c0,0-9,2.5-15,16l10-4v13c0,0,7.086-27.866,69.516-14.945c3.43,1.263,6.671,2.094,9.484,2.354V279.24h12V137.648
				c0.031-0.008,0.062-0.016,0.093-0.024c2.995-0.144,6.551-1.018,10.333-2.413c62.484-13.038,69.575,15.028,69.575,15.028v-13.084
				l9.999,4.025C673.501,127.594,664.502,125.078,664.502,125.078z M550.732,111.458c-10.935-10.935-17.741-21.856-15.203-24.396
				c2.538-2.538,13.461,4.268,24.396,15.203c8.021,8.021,17.579,18.72,21.105,24.856c-0.339,1.804-0.423,3.448-0.199,4.872
				C575.883,131.714,560.516,121.241,550.732,111.458z M585.882,131.54c-2.538-2.555,11.267-18.58,22.2-29.586
				c10.934-11.005,21.855-17.856,24.394-15.301c2.538,2.555-4.268,13.548-15.201,24.554
				C606.341,122.212,588.42,134.095,585.882,131.54z"/>
		</g>
	</g>
</g>
</svg>
