<?xml version="1.0" encoding="utf-8"?>
<!-- Generator: Adobe Illustrator 16.0.0, SVG Export Plug-In . SVG Version: 6.00 Build 0)  -->
<!DOCTYPE svg PUBLIC "-//W3C//DTD SVG 1.1//EN" "http://www.w3.org/Graphics/SVG/1.1/DTD/svg11.dtd">
<svg version="1.1" id="图层_1" xmlns="http://www.w3.org/2000/svg" xmlns:xlink="http://www.w3.org/1999/xlink" x="0px" y="0px"
	 width="120px" height="120px" viewBox="0 0 120 120" enable-background="new 0 0 120 120" xml:space="preserve">
<circle fill="#D0D0D0" cx="60" cy="60" r="60"/>
<g>
	<path fill="#FFFFFF" d="M37.89,56.625v-7.92H22.17c-1.46,0-2.64,0.06-3.54,0.18v-2.25c0.88,0.12,2.06,0.18,3.54,0.18h14.31
		c1.42,0,2.58-0.049,3.48-0.15c-0.08,0.74-0.12,1.71-0.12,2.91v6.03c0,1.34,0.04,2.32,0.12,2.94c-1.56-0.08-2.62-0.12-3.18-0.12
		l-15.33,0.03v8.67c0,0.94,0.24,1.521,0.72,1.74c0.82,0.359,3.67,0.54,8.55,0.54c3.6,0,5.919-0.069,6.96-0.21
		c1.06-0.12,1.75-0.43,2.07-0.93c0.439-0.721,0.69-2.291,0.75-4.711c0.6,0.341,1.28,0.57,2.04,0.69c-0.3,3-0.75,4.88-1.35,5.64
		c-0.5,0.601-1.39,0.99-2.67,1.17c-1.28,0.181-3.85,0.271-7.71,0.271c-5.78,0-9.22-0.33-10.32-0.99c-0.68-0.38-1.02-1.279-1.02-2.7
		v-13.29c0-1.48-0.06-2.58-0.18-3.3h2.34c-0.12,0.84-0.18,1.94-0.18,3.3v2.28H37.89z"/>
	<path fill="#FFFFFF" d="M56.67,67.995c-2.46,0.761-5.2,1.45-8.22,2.069c-0.78,0.16-1.241,0.271-1.38,0.33l-0.45-2.159h0.21
		c0.5,0,1.51-0.13,3.03-0.39c2.6-0.48,4.89-1.08,6.87-1.801L56.67,67.995z M53.58,45.885l-0.96,2.07c-0.6,1.36-1.21,2.61-1.83,3.75
		c-0.72,1.38-1.23,2.31-1.53,2.79l4.62-0.33l0.24-0.39c0.56-0.92,0.96-1.62,1.2-2.1l1.74,0.96c-1.18,1.9-2.52,3.85-4.02,5.85
		c-0.54,0.7-1.42,1.77-2.64,3.21c2.82-0.48,5.05-0.91,6.69-1.29l-0.24,1.86c-0.46,0.1-1.08,0.209-1.86,0.33l-4.89,0.84
		c-0.581,0.119-1.271,0.3-2.07,0.539l-0.6-2.039l0.54-0.15c0.42-0.14,1.209-0.97,2.37-2.49c1.1-1.5,1.94-2.68,2.52-3.54
		c-3,0.24-4.89,0.49-5.67,0.75l-0.48-1.89c0.58-0.1,1.32-1.04,2.22-2.82c0.979-2.02,1.879-4.25,2.7-6.69L53.58,45.885z
		 M64.29,47.565c0-0.84-0.06-1.65-0.181-2.43h2.16c-0.119,0.74-0.18,1.57-0.18,2.49v2.22h4.41c1.16,0,2.16-0.06,3-0.18v2.07
		c-0.84-0.12-1.84-0.18-3-0.18h-4.41v4.56h3.99c1.199,0,2.199-0.06,3-0.18v2.07c-0.84-0.12-1.83-0.18-2.971-0.18h-9.06
		c-1.04,0-2.03,0.06-2.97,0.18v-2.07c0.82,0.12,1.81,0.18,2.97,0.18h3.24v-4.56h-3.93c-1.16,0-2.16,0.06-3,0.18v-2.07
		c0.82,0.12,1.81,0.18,2.97,0.18h3.96V47.565z M60.66,72.105h-2.04c0.1-0.621,0.15-1.58,0.15-2.881v-5.489
		c0-1.12-0.041-2.03-0.12-2.729c0.66,0.08,1.42,0.119,2.28,0.119h8.791c0.979,0,1.779-0.039,2.399-0.119
		C72.04,61.545,72,62.475,72,63.795v5.37c0,1.3,0.05,2.28,0.15,2.94h-2.041v-1.561H60.66V72.105z M60.66,68.865h9.449v-6.061H60.66
		V68.865z"/>
	<path fill="#FFFFFF" d="M88.74,47.985c0-1.1-0.07-2.06-0.211-2.88h2.281c-0.121,0.86-0.18,1.82-0.18,2.88v0.18h9.6
		c1.24,0,2.25-0.07,3.029-0.21v2.16c-0.92-0.12-1.92-0.18-3-0.18h-9.629v2.97h6.299c1.66,0,2.801-0.05,3.42-0.15
		c-0.08,0.6-0.119,1.65-0.119,3.15v2.46c0,1.4,0.039,2.47,0.119,3.21c-0.779-0.12-1.93-0.181-3.449-0.181H91.68
		c2.84,3.681,6.971,6.341,12.391,7.98c-0.48,0.5-0.891,1.11-1.23,1.83c-2.9-1.141-5.34-2.43-7.32-3.87
		c-1.84-1.319-3.5-2.96-4.98-4.92c0.061,1.101,0.092,1.88,0.092,2.341v4.319c0,1.42,0.059,2.489,0.18,3.21h-2.281
		c0.141-0.86,0.211-1.93,0.211-3.21v-4.319c0-0.82,0.02-1.591,0.061-2.311c-1.201,1.66-2.531,3.08-3.99,4.26
		c-2.181,1.78-4.691,3.27-7.531,4.471c-0.279-0.601-0.68-1.17-1.199-1.711c3.14-1.14,5.939-2.729,8.4-4.77
		c1.199-0.98,2.229-2.08,3.09-3.301h-4.53c-1.56,0-2.72,0.061-3.479,0.181c0.079-0.78,0.119-1.85,0.119-3.21v-2.4
		c0-1.36-0.04-2.43-0.119-3.21c0.76,0.1,1.869,0.15,3.33,0.15h5.85v-2.97h-9.211c-1.1,0-2.069,0.06-2.909,0.18v-2.16
		c0.78,0.14,1.76,0.21,2.94,0.21h9.18V47.985z M88.74,54.555h-7.23v5.19h7.23V54.555z M98.4,59.745v-5.19h-7.77v5.19H98.4z"/>
</g>
</svg>
