<?xml version="1.0" encoding="utf-8"?>
<!-- Generator: Adobe Illustrator 16.0.0, SVG Export Plug-In . SVG Version: 6.00 Build 0)  -->
<!DOCTYPE svg PUBLIC "-//W3C//DTD SVG 1.1//EN" "http://www.w3.org/Graphics/SVG/1.1/DTD/svg11.dtd">
<svg version="1.1" id="图层_1" xmlns="http://www.w3.org/2000/svg" xmlns:xlink="http://www.w3.org/1999/xlink" x="0px" y="0px"
	 width="120px" height="120px" viewBox="0 0 120 120" enable-background="new 0 0 120 120" xml:space="preserve">
<circle fill="#FF4138" cx="60" cy="60" r="60"/>
<g>
	<path fill="#FFFFFF" d="M37.56,51.345c0.9-0.88,1.78-1.99,2.64-3.33h-5.43c-1.04,0-1.98,0.06-2.82,0.18v-2.01
		c0.84,0.12,1.81,0.18,2.91,0.18h4.62c1.12,0,1.89-0.04,2.31-0.12l0.96,1.23l-0.66,0.9c-0.56,0.92-1.44,2.07-2.64,3.45
		c-0.221,0.24-0.62,0.64-1.2,1.2c0.3,0.28,0.76,0.77,1.38,1.47l-1.29,1.02h1.92c1.02,0,1.76-0.04,2.22-0.12l1.11,1.05
		c-0.12,0.2-0.44,0.94-0.96,2.22c-0.42,1.02-1.16,2.24-2.22,3.66c-0.38-0.44-0.87-0.81-1.47-1.11c1.1-1.219,1.92-2.569,2.46-4.05
		h-3.3v12.57c0,0.88-0.18,1.45-0.54,1.71c-0.34,0.26-1.121,0.39-2.34,0.39c-0.74,0-1.67-0.04-2.79-0.12
		c-0.021-0.561-0.12-1.21-0.3-1.949c1.1,0.22,2.19,0.33,3.27,0.33c0.36,0,0.59-0.041,0.69-0.121c0.1-0.079,0.15-0.27,0.15-0.569
		v-12.24h-1.92c-1.08,0-2.03,0.06-2.85,0.18v-2.01c0.76,0.12,1.689,0.18,2.79,0.18h3.78c-1.4-1.76-3.03-3.35-4.89-4.77l1.35-1.05
		c0.66,0.48,1.51,1.2,2.55,2.16L37.56,51.345z M52.02,54.795c-0.12,0.6-0.18,1.511-0.18,2.73v3.869c0,2.721-0.43,4.761-1.29,6.121
		c-0.92,1.459-2.45,2.619-4.59,3.479c-0.76,0.34-2.11,0.76-4.05,1.261c-0.3-0.541-0.75-1.111-1.35-1.711
		c2.74-0.539,4.75-1.16,6.03-1.859c1.3-0.68,2.23-1.65,2.79-2.91c0.4-0.939,0.6-2.4,0.6-4.381v-3.899c0-1.18-0.06-2.08-0.18-2.7
		H52.02z M46.41,47.835c-1.26,0-2.201,0.041-2.82,0.12v-1.92c0.7,0.12,1.66,0.18,2.88,0.18h9.36c1.24,0,2.19-0.06,2.85-0.18v1.95
		c-0.72-0.1-1.64-0.15-2.76-0.15h-3.51c-0.221,0.68-0.65,1.811-1.29,3.39h3.51c1.12,0,2.1-0.03,2.94-0.09
		c-0.08,0.46-0.12,1.16-0.12,2.1v9.18c0,1.08,0.06,2.091,0.18,3.03h-2.16c0.12-0.939,0.18-1.95,0.18-3.03v-9.6H46.2v9.6
		c0,1.061,0.06,2.06,0.18,3h-2.1c0.12-0.94,0.18-1.939,0.18-3v-9.03c0-0.96-0.04-1.71-0.12-2.25c0.88,0.06,1.81,0.09,2.79,0.09h2.04
		c0.6-1.3,1.01-2.43,1.23-3.39H46.41z M52.83,66.314c2.419,1.421,4.47,2.851,6.15,4.291l-1.14,1.619
		c-1.92-1.779-3.94-3.299-6.06-4.56L52.83,66.314z"/>
	<path fill="#FFFFFF" d="M82.23,55.845c1.039,0,1.949-0.05,2.729-0.15v1.8c-0.681-0.1-1.59-0.15-2.729-0.15h-5.76v2.46h6.93
		c1.199,0,2.229-0.05,3.09-0.15v1.86c-0.9-0.121-1.931-0.181-3.09-0.181H68.25c-0.42,0-1.35,0.021-2.79,0.06
		c0.06-0.659,0.09-1.529,0.09-2.609v-4.41c0-1.16,0.04-2.18,0.12-3.06c-0.84,1.16-1.87,2.23-3.09,3.21
		c-0.24-0.52-0.63-1.02-1.17-1.5c2.02-1.4,3.74-3.22,5.16-5.46c0.739-1.14,1.199-2.05,1.38-2.73l1.89,0.69
		c-0.08,0.08-0.17,0.21-0.27,0.39l-1.53,2.31h7.739c-0.699-1.04-1.359-1.87-1.979-2.49l1.47-0.96c0.801,0.84,1.69,1.99,2.67,3.45
		H83.4c1.06,0,2.049-0.06,2.97-0.18v1.92c-0.72-0.1-1.661-0.15-2.82-0.15h-7.079v2.25h5.819c1.06,0,1.96-0.06,2.7-0.18v1.86
		c-0.701-0.1-1.601-0.15-2.7-0.15h-5.819v2.25H82.23z M82.68,63.375c1.08,0,1.939-0.039,2.58-0.119c-0.1,0.64-0.15,1.5-0.15,2.579
		v3.63c0,0.98,0.061,1.891,0.181,2.73h-2.101v-1.471H66.721v1.44h-2.07c0.119-0.761,0.18-1.67,0.18-2.729v-3.631
		c0-0.799-0.051-1.649-0.15-2.549c0.641,0.08,1.49,0.119,2.551,0.119H82.68z M83.189,69.045v-3.99H66.721v3.99H83.189z
		 M67.38,49.815v2.25h7.351v-2.25H67.38z M74.73,53.595H67.38v2.25h7.351V53.595z M67.38,57.345v2.46h7.351v-2.46H67.38z"/>
</g>
</svg>
