<?xml version="1.0" encoding="utf-8"?>
<!-- Generator: Adobe Illustrator 16.0.0, SVG Export Plug-In . SVG Version: 6.00 Build 0)  -->
<!DOCTYPE svg PUBLIC "-//W3C//DTD SVG 1.1//EN" "http://www.w3.org/Graphics/SVG/1.1/DTD/svg11.dtd">
<svg version="1.1" id="图层_1" xmlns="http://www.w3.org/2000/svg" xmlns:xlink="http://www.w3.org/1999/xlink" x="0px" y="0px"
	 width="120px" height="120px" viewBox="0 0 120 120" enable-background="new 0 0 120 120" xml:space="preserve">
<circle fill="#D0D0D0" cx="60" cy="60" r="60"/>
<g>
	<path fill="#FFFFFF" d="M52.23,55.845c1.04,0,1.95-0.05,2.73-0.15v1.8c-0.68-0.1-1.59-0.15-2.73-0.15h-5.76v2.46h6.93
		c1.2,0,2.23-0.05,3.09-0.15v1.86c-0.9-0.121-1.931-0.181-3.09-0.181H38.25c-0.42,0-1.35,0.021-2.79,0.06
		c0.06-0.659,0.09-1.529,0.09-2.609v-4.41c0-1.16,0.04-2.18,0.12-3.06c-0.84,1.16-1.87,2.23-3.09,3.21
		c-0.24-0.52-0.63-1.02-1.17-1.5c2.02-1.4,3.74-3.22,5.16-5.46c0.74-1.14,1.2-2.05,1.38-2.73l1.89,0.69
		c-0.08,0.08-0.17,0.21-0.27,0.39l-1.53,2.31h7.74c-0.7-1.04-1.36-1.87-1.98-2.49l1.47-0.96c0.8,0.84,1.69,1.99,2.67,3.45h5.46
		c1.06,0,2.05-0.06,2.97-0.18v1.92c-0.72-0.1-1.661-0.15-2.82-0.15h-7.08v2.25h5.82c1.06,0,1.96-0.06,2.7-0.18v1.86
		c-0.701-0.1-1.601-0.15-2.7-0.15h-5.82v2.25H52.23z M52.68,63.375c1.08,0,1.939-0.039,2.58-0.119c-0.1,0.64-0.15,1.5-0.15,2.579
		v3.63c0,0.98,0.06,1.891,0.18,2.73h-2.1v-1.471H36.72v1.44h-2.07c0.12-0.761,0.18-1.67,0.18-2.729v-3.631
		c0-0.799-0.05-1.649-0.15-2.549c0.64,0.08,1.49,0.119,2.55,0.119H52.68z M53.19,69.045v-3.99H36.72v3.99H53.19z M37.38,49.815v2.25
		h7.35v-2.25H37.38z M44.73,53.595h-7.35v2.25h7.35V53.595z M37.38,57.345v2.46h7.35v-2.46H37.38z"/>
	<path fill="#FFFFFF" d="M64.891,56.835c-0.381,1.8-1.16,3.42-2.341,4.86c-0.319-0.561-0.729-1.03-1.229-1.41
		c1.459-1.68,2.189-3.86,2.189-6.54c0-0.66-0.029-1.23-0.09-1.71c0.66,0.06,1.439,0.09,2.34,0.09h6.51c1.1,0,1.85-0.02,2.25-0.06
		c-0.06,0.281-0.09,0.71-0.09,1.29v2.01c0,0.76,0.02,1.28,0.061,1.56c-0.78-0.06-1.59-0.09-2.43-0.09H64.891z M64.29,47.895
		c-0.94,0-1.729,0.041-2.37,0.12v-1.62c0.619,0.08,1.41,0.12,2.37,0.12h3.78c-0.021-0.68-0.07-1.22-0.15-1.62h1.95
		c-0.101,0.34-0.149,0.88-0.149,1.62h3.539c0.9,0,1.641-0.04,2.221-0.12v1.59c-0.541-0.06-1.271-0.09-2.19-0.09h-3.569v1.59h2.549
		c0.94,0,1.681-0.03,2.221-0.09v1.5c-0.621-0.06-1.36-0.09-2.221-0.09H65.37c-0.82,0-1.521,0.041-2.101,0.12v-1.56
		c0.561,0.08,1.26,0.12,2.101,0.12h2.7v-1.59H64.29z M75.84,69.855h7.891v-0.45c0-0.76-0.051-1.47-0.15-2.13h2.13
		c-0.08,0.46-0.12,1.01-0.12,1.65v1.049c0,0.9,0.04,1.7,0.12,2.4H83.73v-1.05H67.17c-1.08,0-2.01,0.04-2.79,0.12
		c0.079-0.801,0.12-1.43,0.12-1.891v-0.479c0-0.54-0.051-1.13-0.15-1.771h2.131c-0.08,0.58-0.121,1.19-0.121,1.83v0.721h7.74v-3.42
		h-9.209c-1.201,0-2.19,0.06-2.971,0.18v-2.01c0.641,0.119,1.64,0.18,3,0.18h9.18v-2.46h-6.93c-0.82,0.66-1.949,1.431-3.391,2.31
		c-0.16-0.479-0.529-0.949-1.109-1.41c1.561-0.76,2.891-1.579,3.99-2.459c1.119-0.86,2.13-1.92,3.029-3.18l1.561,0.75
		c-0.9,1.08-1.631,1.88-2.189,2.4H82.71c1.159,0,2.13-0.06,2.91-0.18v1.89l-0.87-0.061c-0.24-0.039-0.95-0.06-2.13-0.06h-6.78v2.46
		h9.09c1.42,0,2.471-0.061,3.15-0.18v1.949c-1.16-0.079-2.2-0.119-3.12-0.119h-9.12V69.855z M65.13,53.415
		c0,0.581-0.021,1.29-0.06,2.13h3.18v-2.13H65.13z M72.87,55.545v-2.13h-3.149v2.13H72.87z M86.49,52.665
		c-0.301,0.3-0.521,0.54-0.66,0.72c-1,1.24-2.03,2.26-3.09,3.06c1.98,0.9,3.979,1.45,6,1.65c-0.4,0.58-0.701,1.13-0.9,1.65
		c-2.42-0.48-4.561-1.26-6.42-2.34c-1.6,1.02-3.779,1.88-6.54,2.58c-0.22-0.58-0.51-1.08-0.87-1.5c2.2-0.36,4.189-1.03,5.971-2.01
		c-1.041-0.78-2.021-1.85-2.94-3.21c-0.42,0-0.87,0.03-1.351,0.09v-1.53c0.4,0.06,1.03,0.09,1.891,0.09h6.18
		c0.859,0,1.46-0.04,1.801-0.12L86.49,52.665z M78.84,47.025c0,0.7-0.15,1.4-0.449,2.1c-0.441,0.96-1.281,1.75-2.521,2.37
		c-0.32-0.56-0.69-1-1.11-1.32c0.78-0.38,1.32-0.72,1.62-1.02c0.601-0.64,0.899-1.48,0.899-2.52c0-0.34-0.039-0.75-0.119-1.23
		c0.56,0.08,1.209,0.12,1.949,0.12h3.48c1.061,0,1.76-0.03,2.1-0.09c-0.039,0.36-0.06,1.08-0.06,2.16v1.14
		c0,0.36,0.31,0.54,0.931,0.54c1.18,0,2.079-0.06,2.699-0.18l-0.18,1.47l-0.75,0.06c-0.359,0.041-0.84,0.06-1.439,0.06
		c-1.32,0-2.131-0.09-2.431-0.27c-0.3-0.16-0.45-0.61-0.45-1.35v-2.04H78.84z M78.721,53.265c0.719,0.96,1.579,1.76,2.579,2.4
		c1-0.72,1.88-1.52,2.64-2.4H78.721z"/>
</g>
</svg>
