<?xml version="1.0" encoding="utf-8"?>
<!-- Generator: Adobe Illustrator 16.0.0, SVG Export Plug-In . SVG Version: 6.00 Build 0)  -->
<!DOCTYPE svg PUBLIC "-//W3C//DTD SVG 1.1//EN" "http://www.w3.org/Graphics/SVG/1.1/DTD/svg11.dtd">
<svg version="1.1" id="图层_1" xmlns="http://www.w3.org/2000/svg" xmlns:xlink="http://www.w3.org/1999/xlink" x="0px" y="0px"
	 width="180px" height="70px" viewBox="0 0 180 70" enable-background="new 0 0 180 70" xml:space="preserve">
<path fill-rule="evenodd" clip-rule="evenodd" fill="#7AB2FF" d="M179.987,60V0h-180v60l89,10L179.987,60z"/>
<path fill-rule="evenodd" clip-rule="evenodd" fill="#71AAF9" d="M89,0H0v60l89,10V0z"/>
<g>
	<path fill="#FFFFFF" d="M37.757,41.421c0,1.66,0.06,2.81,0.18,3.45h-2.13c0.12-0.76,0.18-1.9,0.18-3.42v-6.87
		c0-1.4,0.06-3,0.18-4.8c-0.88,3.221-2.19,6-3.93,8.34c-0.28-0.641-0.64-1.2-1.08-1.68c1.26-1.42,2.36-3.26,3.3-5.521
		c0.439-1.08,0.859-2.35,1.26-3.81h-1.5c-0.96,0-1.78,0.05-2.46,0.15v-1.95c0.68,0.1,1.51,0.15,2.49,0.15h1.74v-4.41
		c-0.62,0.18-1.76,0.45-3.42,0.81c-0.26-0.62-0.55-1.17-0.87-1.65c4.02-0.58,6.75-1.45,8.19-2.61l1.26,1.53l-0.45,0.21
		c-1.1,0.521-2.08,0.911-2.94,1.17v4.95h0.81c1.02,0,1.77-0.04,2.25-0.12v1.89c-0.56-0.08-1.32-0.12-2.28-0.12h-0.78v1.05
		c1.48,1.68,2.66,3.18,3.54,4.5l-1.26,1.2c-0.6-1.08-1.36-2.229-2.28-3.45V41.421z M43.487,37.641
		c-0.88,2.441-1.91,4.461-3.09,6.061l-1.56-0.99c1.32-1.561,2.31-3.439,2.97-5.641L43.487,37.641z M49.307,24.651
		c0.7-0.94,1.39-2.04,2.07-3.3h-5.76c-1.06,1.5-2.44,2.9-4.14,4.2c-0.36-0.6-0.761-1.06-1.2-1.38c1.36-0.84,2.56-1.92,3.6-3.24
		c1.06-1.3,1.669-2.43,1.83-3.39l1.92,0.42l-1.02,1.83h4.2c1,0,1.74-0.03,2.22-0.09l0.87,0.99l-0.78,1.29
		c-0.68,1.16-1.26,2.05-1.74,2.67h2.79c1.06,0,1.86-0.04,2.4-0.12c-0.08,0.54-0.12,1.271-0.12,2.19v5.61c0,0.88,0.04,1.67,0.12,2.37
		c-0.78-0.08-1.63-0.12-2.55-0.12h-9.75c-0.98,0-1.8,0.05-2.46,0.15v-1.86c0.62,0.1,1.44,0.15,2.46,0.15h10.47v-2.67h-9.24
		c-1.52,0.04-2.59,0.09-3.21,0.15v-1.95c0.78,0.14,1.88,0.21,3.3,0.21h9.15v-2.55h-9.21c-1,0-1.84,0.05-2.52,0.15v-1.86
		c0.56,0.1,1.4,0.15,2.52,0.15H49.307z M46.637,41.961c0,0.359,0.16,0.58,0.48,0.66c0.3,0.1,1.07,0.15,2.31,0.15
		c1.72,0,2.72-0.17,3-0.51c0.22-0.24,0.34-1.051,0.36-2.431c0.44,0.2,1.02,0.36,1.74,0.479c-0.18,1.86-0.5,2.98-0.96,3.36
		c-0.56,0.479-2.07,0.72-4.53,0.72c-1.7,0-2.85-0.13-3.45-0.39c-0.5-0.239-0.75-0.74-0.75-1.5v-3.81c0-1.061-0.05-1.88-0.15-2.461
		h2.1c-0.1,0.581-0.15,1.391-0.15,2.431V41.961z M51.047,39.561c-0.9-1.299-1.9-2.439-3-3.42l1.32-0.93
		c1.14,1.02,2.15,2.1,3.03,3.24L51.047,39.561z M57.587,43.611c-0.88-2.141-1.99-4.1-3.33-5.881l1.53-0.719
		c1.34,1.799,2.5,3.68,3.48,5.639L57.587,43.611z"/>
	<path fill="#FFFFFF" d="M64.097,32.781c0-1.6,0.03-3.12,0.09-4.56c-0.78,1.66-1.64,3.14-2.58,4.44c-0.14-0.22-0.21-0.34-0.21-0.36
		c-0.18-0.34-0.38-0.63-0.6-0.87c-0.12-0.18-0.23-0.33-0.33-0.45c1.84-2.4,3.39-5.31,4.65-8.73c0.7-1.96,1.12-3.5,1.26-4.62
		l1.92,0.54c-0.2,0.5-0.36,0.98-0.48,1.44c-0.54,1.8-1.19,3.61-1.95,5.43v16.141c0,1.6,0.04,2.839,0.12,3.719h-2.07
		c0.12-1.02,0.18-2.25,0.18-3.689V32.781z M71.147,28.401c1.339,0,2.26-0.04,2.76-0.12l-0.21,1.56c-0.42,3.3-1.06,6.09-1.92,8.37
		c2.28,2.721,6.169,4.08,11.67,4.08c1.38,0,3.27-0.109,5.67-0.33c-0.32,0.7-0.51,1.35-0.57,1.95c-1.7,0.079-3.03,0.12-3.99,0.12
		c-3.66,0-6.57-0.371-8.73-1.11c-1.86-0.64-3.44-1.659-4.74-3.06c-0.74,1.56-1.871,3.22-3.39,4.979c-0.26-0.42-0.69-0.899-1.29-1.44
		c1.54-1.439,2.72-3.109,3.54-5.01c-0.38-0.58-0.76-1.229-1.14-1.949c-0.36-0.72-0.91-2.05-1.65-3.99l1.74-0.72
		c0.28,1.62,0.87,3.22,1.77,4.8c0.5-1.48,0.96-3.69,1.38-6.63h-2.91c-0.9,0-1.62,0.021-2.16,0.06c2.02-2.82,3.58-5.56,4.68-8.22
		h-1.89c-0.58,0-1.14,0.05-1.68,0.15v-1.83c0.46,0.06,1.05,0.09,1.77,0.09h1.53c0.64,0,1.17-0.03,1.59-0.09l0.87,0.93
		c-0.1,0.18-0.23,0.45-0.39,0.81c-0.761,1.94-1.95,4.14-3.57,6.6H71.147z M76.427,26.151c-1.18,0-2.06,0.05-2.64,0.15v-1.83
		c0.58,0.1,1.55,0.15,2.91,0.15h2.55v-2.55h-1.89c-0.88,0-1.64,0.041-2.28,0.12v-1.8c0.56,0.1,1.32,0.15,2.28,0.15h1.89v-0.27
		c0-0.7-0.05-1.43-0.15-2.19h1.95c-0.08,0.62-0.12,1.35-0.12,2.19v0.27h3.51c1.02,0,1.77-0.03,2.25-0.09
		c-0.041,0.42-0.06,1.09-0.06,2.01v2.16h0.3c0.82,0,1.49-0.05,2.01-0.15v1.83c-0.701-0.1-1.37-0.15-2.01-0.15h-0.3v2.43
		c0,0.84,0.02,1.45,0.06,1.83c-0.84-0.04-1.601-0.06-2.28-0.06h-3.48v2.4h3.45c1.22,0,2.149-0.05,2.79-0.15v1.8
		c-1.041-0.1-1.98-0.15-2.82-0.15h-3.42v2.55h4.5c1.06,0,2.04-0.049,2.94-0.15v1.83c-0.78-0.079-1.76-0.119-2.94-0.119h-4.5v0.57
		c0,0.799,0.05,1.539,0.15,2.219h-1.98c0.1-0.76,0.15-1.489,0.15-2.189v-0.6h-3.45c-1.22,0-2.14,0.05-2.76,0.15V36.65
		c0.72,0.102,1.65,0.15,2.79,0.15h3.42v-2.55h-2.28c-1.22,0-2.09,0.05-2.61,0.15v-1.8c0.52,0.1,1.39,0.15,2.61,0.15h2.28v-2.4h-2.16
		c-0.84,0-1.57,0.04-2.19,0.12v-1.71c0.62,0.08,1.36,0.12,2.22,0.12h2.13v-2.73H76.427z M84.917,24.621v-2.55h-3.99v2.55H84.917z
		 M80.927,28.881h3.99v-2.73h-3.99V28.881z"/>
	<path fill="#FFFFFF" d="M99.316,23.601c0.66,0,1.24-0.05,1.74-0.15v1.95c-0.48-0.08-1.1-0.12-1.859-0.12h-1.681v5.94
		c0.72-0.3,1.7-0.75,2.94-1.35l0.029,1.8c-1.22,0.581-2.209,1.03-2.97,1.35v9.51c0,0.82-0.239,1.369-0.72,1.65
		c-0.461,0.279-1.4,0.42-2.82,0.42l-1.529-0.061c-0.061-0.68-0.201-1.311-0.42-1.891c1.059,0.141,1.92,0.211,2.58,0.211
		c0.659,0,0.989-0.24,0.989-0.721v-8.34l-0.45,0.18c-0.939,0.36-2.029,0.8-3.27,1.32l-0.57-2.01c0.96-0.16,2.39-0.6,4.29-1.32v-6.69
		h-1.86c-0.8,0-1.52,0.041-2.16,0.12v-1.95c0.561,0.1,1.28,0.15,2.16,0.15h1.86v-2.79c0-1.16-0.07-2.17-0.21-3.03h2.34
		c-0.141,0.86-0.21,1.851-0.21,2.97v2.85H99.316z M115.907,31.641c-0.261,0.38-0.54,0.82-0.841,1.32
		c-1.42,2.34-2.97,4.301-4.649,5.88c2.52,1.88,5.25,3.181,8.189,3.9c-0.5,0.62-0.88,1.249-1.14,1.89
		c-3.38-1.08-6.23-2.59-8.55-4.529c-2.66,2.08-5.67,3.609-9.03,4.59c-0.28-0.681-0.66-1.26-1.141-1.74
		c3.2-0.84,6.131-2.221,8.791-4.141c-0.96-0.979-1.8-2.029-2.521-3.149c-0.62-0.98-1.189-2.14-1.71-3.48
		c-0.58,0-1.229,0.04-1.949,0.12v-1.98c0.659,0.12,1.47,0.18,2.43,0.18h9.149c0.9,0,1.5-0.05,1.801-0.15L115.907,31.641z
		 M118.396,27.801c-1.12,0.14-2.29,0.21-3.51,0.21c-1.68,0-2.75-0.14-3.21-0.42c-0.34-0.2-0.51-0.6-0.51-1.2v-5.76h-5.37
		c-0.101,2.38-0.57,4.26-1.41,5.64c-0.66,1.04-1.59,2.01-2.79,2.91c-0.4-0.58-0.87-1.06-1.409-1.44
		c1.419-0.94,2.389-1.97,2.909-3.09c0.54-1.12,0.811-2.689,0.811-4.71c0-0.42-0.021-0.8-0.061-1.14c0.58,0.06,1.3,0.09,2.16,0.09
		h5.01c0.86,0,1.57-0.03,2.13-0.09c-0.06,0.4-0.09,1.13-0.09,2.19v4.68c0,0.26,0.09,0.43,0.271,0.51c0.18,0.06,0.63,0.09,1.35,0.09
		c1.1,0,2.34-0.13,3.72-0.39V27.801z M105.106,32.181c1,2.18,2.29,4,3.87,5.459c1.681-1.5,3.15-3.319,4.41-5.459H105.106z"/>
	<path fill="#FFFFFF" d="M130.037,26.091c-2.38,1-4.09,1.68-5.13,2.04c-0.66,0.22-1.19,0.41-1.59,0.57
		c-0.36,0.16-0.71,0.3-1.05,0.42l-0.721-2.01c2.521-0.5,5.18-1.38,7.98-2.64L130.037,26.091z M135.947,33.021
		c-0.04,0.4-0.08,1.09-0.12,2.07c-0.08,2.421-0.5,4.19-1.26,5.31c-0.8,1.201-2.261,2.201-4.38,3c-1.2,0.461-2.771,0.86-4.71,1.201
		l-2.67,0.299c-0.221-0.619-0.53-1.25-0.931-1.889c3.28-0.061,6.01-0.53,8.19-1.41c1.84-0.76,3.01-1.9,3.51-3.42
		c0.26-0.76,0.391-1.951,0.391-3.571c0-0.5-0.041-1.03-0.12-1.59H135.947z M128.178,22.521c-1.94-1.3-3.721-2.26-5.341-2.88
		l1.051-1.38c1.979,0.82,3.739,1.73,5.279,2.73L128.178,22.521z M125.417,40.251c0.14-0.84,0.21-1.95,0.21-3.33v-3.9
		c0-1.1-0.029-2.05-0.09-2.85c0.74,0.08,1.85,0.12,3.33,0.12h12.18c1.521,0,2.65-0.04,3.391-0.12c-0.08,0.581-0.12,1.57-0.12,2.97
		v3.78c0,1.54,0.05,2.65,0.15,3.33h-2.311c0.14-1.04,0.21-2.149,0.21-3.33v-4.95h-14.85v4.95c0,1.261,0.06,2.37,0.18,3.33H125.417z
		 M133.547,21.861c-0.739,0.94-1.689,1.85-2.85,2.73c-0.3-0.4-0.74-0.799-1.32-1.2c2.32-1.66,3.9-3.6,4.74-5.82l1.83,0.6
		c-0.5,0.92-0.94,1.64-1.32,2.16h9.87c0.84,0,1.51-0.05,2.01-0.15l1.171,0.99l-0.75,1.02c-0.78,1.1-1.71,2.06-2.79,2.88
		c-0.501-0.36-1.051-0.649-1.65-0.87c1.08-0.68,1.939-1.46,2.58-2.34h-5.64c0.359,1.42,1.22,2.7,2.579,3.84
		c1.42,1.22,3.65,2.05,6.69,2.49c-0.34,0.48-0.641,1.11-0.9,1.89c-2.32-0.56-4.17-1.28-5.55-2.16c-1.54-1-2.771-2.4-3.689-4.2
		c-0.641,1.66-1.801,3.01-3.48,4.05c-0.899,0.54-1.82,0.95-2.76,1.23c-0.3,0.1-0.8,0.25-1.5,0.45l-0.87,0.24
		c-0.18-0.54-0.45-1.11-0.81-1.71c2.659-0.36,4.689-1.13,6.09-2.31c1.159-1,1.909-2.27,2.25-3.81H133.547z M136.968,39.291
		c4.279,1.4,8.02,2.74,11.22,4.02l-0.931,1.74c-3.42-1.48-7.13-2.89-11.13-4.23L136.968,39.291z"/>
</g>
</svg>
