<?xml version="1.0" encoding="utf-8"?>
<!-- Generator: Adobe Illustrator 16.0.0, SVG Export Plug-In . SVG Version: 6.00 Build 0)  -->
<!DOCTYPE svg PUBLIC "-//W3C//DTD SVG 1.1//EN" "http://www.w3.org/Graphics/SVG/1.1/DTD/svg11.dtd">
<svg version="1.1" id="图层_1" xmlns="http://www.w3.org/2000/svg" xmlns:xlink="http://www.w3.org/1999/xlink" x="0px" y="0px"
	 width="150px" height="140px" viewBox="0 0 150 140" enable-background="new 0 0 150 140" xml:space="preserve">
<path fill-rule="evenodd" clip-rule="evenodd" fill="#FFFFFF" d="M74.769,50.617l9.425,5.077l-8.99,5.511l-9.424-4.787
	L74.769,50.617L74.769,50.617z M75.203,44.526l21.024,11.749l-9.427,5.799c0,0,23.348,2.61,31.9,13.49
	c0,0,12.878,18.447-17.137,27.874c0,0-58.115,14.183-74.065-18.157l13.63-0.437c0,0,10.583,19.957,32.915,17.49
	c0,0,39.293-1.391,32.623-23.002c0,0-7.976-14.501-34.799-14.211l-16.529-9.283L75.203,44.526L75.203,44.526z"/>
<path fill-rule="evenodd" clip-rule="evenodd" fill="#FFFFFF" d="M65.198,83.685l9.426-5.221l9.569,5.221l-9.86,5.221L65.198,83.685
	L65.198,83.685z M76.42,33.688c14.697,1.016,38.949,4.571,46.081,21.837c-4.856,0-9.706,0-14.563,0
	c-5.115-22.482-57.168-25.708-64.952-3.36c-3.999,10.246,10.901,21.993,21.63,21.849c2.231-0.03,5.802-1.253,9.188-0.476
	l18.942,10.065L73.783,94.721c-6.905-3.918-13.813-7.839-20.719-11.758c3.173-1.866,6.348-3.733,9.52-5.6
	c-15.515-1.626-37.669-10.138-34.717-24.636C31.578,34.509,61.723,32.673,76.42,33.688L76.42,33.688z"/>
</svg>
