<?xml version="1.0" encoding="utf-8"?>
<!-- Generator: Adobe Illustrator 16.0.0, SVG Export Plug-In . SVG Version: 6.00 Build 0)  -->
<!DOCTYPE svg PUBLIC "-//W3C//DTD SVG 1.1//EN" "http://www.w3.org/Graphics/SVG/1.1/DTD/svg11.dtd">
<svg version="1.1" id="图层_1" xmlns="http://www.w3.org/2000/svg" xmlns:xlink="http://www.w3.org/1999/xlink" x="0px" y="0px"
	 width="90px" height="90px" viewBox="0 0 90 90" enable-background="new 0 0 90 90" xml:space="preserve">
<path fill="#FFFFFF" d="M4.045,45c0,22.619,18.336,40.955,40.954,40.955c22.62,0,40.955-18.336,40.955-40.955
	c0-22.62-18.335-40.955-40.955-40.955C22.381,4.045,4.045,22.381,4.045,45L4.045,45z M0,45C0,20.147,20.146,0,44.999,0
	C69.853,0,90,20.147,90,45S69.853,90,44.999,90C20.146,90,0,69.854,0,45L0,45z"/>
<path fill="#FFFFFF" d="M44.999,7.456c0,0-7.357-0.317-14.992,3.111c-1.748,0.785-1.579,1.804-1.435,2.248
	c0.144,0.444,0.521,0.941,2.211,1.511s8.807,3.995,8.807,14.63c0,1.48,0,53.176,0,53.176s2.521,0.416,5.409,0.416
	s5.409-0.416,5.409-0.416s0-51.696,0-53.176c0-10.635,7.118-14.061,8.809-14.63s2.066-1.067,2.211-1.511s0.313-1.462-1.436-2.248
	C52.356,7.138,44.999,7.456,44.999,7.456L44.999,7.456z"/>
<path fill="#FFFFFF" d="M28.454,17.657c0,0,7.279,1.67,7.279,11.361c0,9.689,0,52.367,0,52.367s-3.84-0.924-7.279-2.682V17.657
	L28.454,17.657z"/>
<path fill="#FFFFFF" d="M61.555,17.657c0,0-7.279,1.67-7.279,11.361c0,9.689,0,52.367,0,52.367s3.841-0.924,7.279-2.682V17.657
	L61.555,17.657z"/>
<path fill="#FFFFFF" d="M24.97,13.344c0,0-17.519,9.806-17.519,31.505c0,21.776,17.519,31.792,17.519,31.792V47.107
	c0,0-2.405-0.17-4.381,1.25c-1.977,1.42-2.388,2.627-2.44,2.826c-0.095,0.355-0.358,1.221-1.008,1.221
	c-0.65,0-2.388-2.309-2.388-7.813c0-5.504,1.79-7.771,2.36-7.771c0.571,0,0.876,0.519,1.062,1.246
	c0.186,0.73,1.154,2.323,2.864,3.171c1.631,0.809,3.466,0.676,3.931,0.676V13.344L24.97,13.344z"/>
<path fill="#FFFFFF" d="M65.029,13.26v63.474c0,0,16.206-9.266,17.374-29.602c0,0-2.761-0.016-4.741,1.6
	c-2.766,2.254-1.608,3.387-2.873,3.676c-0.596,0.137-2.435-1.965-2.435-7.794c0-5.322,1.604-7.844,2.339-7.771
	c1.587,0.158-0.022,1.961,3.7,4.304c0.798,0.502,2.296,0.734,3.972,0.773c0,0-0.092-7.45-4.792-15.538
	C72.274,17.267,65.029,13.26,65.029,13.26L65.029,13.26z"/>
</svg>
