<?xml version="1.0" encoding="utf-8"?>
<!-- Generator: Adobe Illustrator 16.0.0, SVG Export Plug-In . SVG Version: 6.00 Build 0)  -->
<!DOCTYPE svg PUBLIC "-//W3C//DTD SVG 1.1//EN" "http://www.w3.org/Graphics/SVG/1.1/DTD/svg11.dtd">
<svg version="1.1" id="图层_1" xmlns="http://www.w3.org/2000/svg" xmlns:xlink="http://www.w3.org/1999/xlink" x="0px" y="0px"
	 width="90px" height="90px" viewBox="0 0 90 90" enable-background="new 0 0 90 90" xml:space="preserve">
<path fill-rule="evenodd" clip-rule="evenodd" fill="#FFFFFF" d="M9.077,49.887l-0.425,2.411h12.754l0.565-2.411H9.077L9.077,49.887
	z M41.528,52.298l0.425-2.411H27.499l-0.567,2.411H41.528L41.528,52.298z M49.604,40.111l-1.982,9.775l-0.567,2.411l-1.984,9.779
	h-5.525H24.948l-0.425,2.264h23.522l3.117-14.454l1.984-9.775h5.528h22.672l-2.124,9.775H56.691L51.588,74.12h-5.526H22.396
	l-0.425,2.267h32.735l3.116-14.31l1.984-9.779h5.668h13.323l-1.984,9.779H63.349l-2.974,14.31l-2.127,9.779h-5.525H14.319
	l5.103-24.089H6.526H1l2.125-9.779l0.425-2.411l2.126-9.775h5.526h12.754l5.103-24.091h5.525h14.595L51.73,3.834h1.702H89
	l-2.125,9.777H55.132l-0.425,2.409l-1.984,9.777h-5.669H32.601l-0.567,2.267h23.663l0.425-2.267l2.127-9.777h5.525h22.675
	l-2.124,9.777H61.789L59.24,37.844h-5.528H30.051l-0.567,2.268h14.596H49.604L49.604,40.111z"/>
</svg>
