<?xml version="1.0" encoding="utf-8"?>
<!-- Generator: Adobe Illustrator 16.0.0, SVG Export Plug-In . SVG Version: 6.00 Build 0)  -->
<!DOCTYPE svg PUBLIC "-//W3C//DTD SVG 1.1//EN" "http://www.w3.org/Graphics/SVG/1.1/DTD/svg11.dtd">
<svg version="1.1" id="图层_1" xmlns="http://www.w3.org/2000/svg" xmlns:xlink="http://www.w3.org/1999/xlink" x="0px" y="0px"
	 width="150px" height="140px" viewBox="0 0 150 140" enable-background="new 0 0 150 140" xml:space="preserve">
<path fill-rule="evenodd" clip-rule="evenodd" fill="#FFFFFF" d="M71.742,27.593c0,0,7.747-5.982,21.069-1.631
	c0,0,4.485,1.631,9.65,6.252L118.5,49.07l-8.562,8.564L85.468,32.759C85.468,32.759,81.392,27.729,71.742,27.593L71.742,27.593z
	 M107.086,60.625l-10.06,9.787c0,0-1.634,2.311-2.992,0.136L75.548,52.468c0,0-1.634-2.174-2.857-0.271L54.069,71.227
	c0,0-1.224,1.903,0.27,2.719l18.217,18.214c0,0,1.494,2.448,2.857,0.545l18.891-19.029c0,0,0.545-1.633,3.537-1.225h19.3
	c0,0,0.819,19.574-14.136,31.808c0,0-19.436,19.438-46.079,7.475c0,0-25.694-8.971-25.424-42.272c0,0,0.684-22.293,20.939-34.118
	c0,0,14.815-11.012,26.638-2.855L107.086,60.625L107.086,60.625z"/>
</svg>
