<?xml version="1.0" encoding="utf-8"?>
<!-- Generator: Adobe Illustrator 16.0.0, SVG Export Plug-In . SVG Version: 6.00 Build 0)  -->
<!DOCTYPE svg PUBLIC "-//W3C//DTD SVG 1.1//EN" "http://www.w3.org/Graphics/SVG/1.1/DTD/svg11.dtd">
<svg version="1.1" id="图层_1" xmlns="http://www.w3.org/2000/svg" xmlns:xlink="http://www.w3.org/1999/xlink" x="0px" y="0px"
	 width="150px" height="140px" viewBox="0 0 150 140" enable-background="new 0 0 150 140" xml:space="preserve">
<path fill-rule="evenodd" clip-rule="evenodd" fill="#FFFFFF" d="M70.926,25.097l2.084-0.189h2.084h2.084l1.896,0.189v26.904v0.757
	l-0.189,0.19l-0.188,0.38h-0.189l-0.188,0.188l-0.573,0.189h-5.302l-0.567-0.189l-0.194-0.188h-0.378v-0.38l-0.189-0.19
	l-0.189-0.757V25.097L70.926,25.097z M90.062,69.812v12.883v0.57l-0.189,0.378l-0.188,0.188l-0.189,0.381h-0.378L88.738,84.4
	l-0.762,0.189h-7.958v21.222l1.706-0.381l1.706-0.188l1.518-0.57l1.518-0.378l0.756-0.188l0.755-0.378l1.518-0.57l1.518-0.758
	l1.328-0.756l1.512-0.762l1.328-0.756l1.134-0.947l1.328-0.948l2.462-2.084l1.14-1.137l0.944-1.136l1.14-1.326l0.944-1.136
	l0.951-1.329l0.756-1.325l0.756-1.515l0.761-1.328l0.756-1.515l0.567-1.514l0.95-3.035l0.566-1.514l0.189-1.704l0.378-1.517
	l0.194-1.707l0.189-3.409l-0.189-2.652l-0.194-1.327v-1.325l-0.567-2.652l-0.756-2.652l-0.378-1.139l-0.383-1.136l-0.945-2.464
	l-1.328-2.273l-1.134-2.272l-1.518-1.896l-1.706-2.084l-1.706-1.896l-1.895-1.704l-1.89-1.516l-2.09-1.517l-2.268-1.325
	l-2.278-1.138v30.506v0.566l-0.189,0.38l-0.188,0.189l-0.189,0.378l-0.378,0.19h-0.378l-0.762,0.189H77.367h-0.566l-0.189,0.188
	l-0.188,0.19V56.739l0.188-0.381l0.189-0.378l0.378-0.189h0.378h4.74l0.756-0.19l0.567-0.188l0.378-0.19l0.383-0.568V35.138v-7.389
	v-1.894l3.785,1.137l1.896,0.567l1.706,0.568l1.895,0.758l1.707,0.947l1.706,0.759l1.512,0.947l1.706,1.137l1.517,0.947l1.518,1.137
	l1.322,1.325l1.518,1.327l1.328,1.327l2.462,2.652l1.14,1.516l1.134,1.515l0.944,1.706l0.951,1.515l1.895,3.411l0.756,1.704
	l0.572,1.896l1.134,3.6l0.567,1.896l0.384,1.896l0.188,1.895L120,66.021v1.896v2.084v2.273l-0.188,2.275l-0.189,2.273l-0.384,2.272
	l-0.566,2.084l-0.567,2.273l-0.756,2.084l-0.761,1.896l-0.945,2.084l-0.95,1.896l-1.134,1.895l-1.14,1.896l-1.322,1.703
	l-1.328,1.706l-1.328,1.704l-1.512,1.517l-1.518,1.515l-1.706,1.325L101.999,106l-1.706,1.326l-1.896,1.137l-1.896,1.139
	l-1.895,0.945l-2.079,0.947l-1.895,0.759l-2.279,0.756l-2.078,0.569l-2.084,0.569l-2.278,0.378l-2.273,0.189l-2.273,0.188
	l-2.272,0.189l-2.273-0.189l-2.273-0.188l-2.273-0.189l-2.273-0.378l-2.273-0.569l-2.084-0.569l-2.084-0.756l-2.084-0.759
	l-1.896-0.947l-1.895-0.945l-1.895-1.139l-1.895-1.137L48.19,106l-1.706-1.328l-1.706-1.325l-1.512-1.515l-1.517-1.517l-1.518-1.704
	l-1.323-1.706l-1.139-1.703l-1.134-1.896l-1.139-1.895l-0.945-1.896l-0.95-2.084l-0.756-1.896l-0.762-2.084l-0.567-2.273
	l-0.567-2.084l-0.378-2.272l-0.383-2.273L30,72.274v-2.273v-2.084l0.189-1.896l0.189-2.083l0.383-1.895l0.378-1.896l0.378-1.896
	l1.14-3.6l0.756-1.896l0.756-1.704l0.761-1.705l0.945-1.706l0.95-1.515l1.134-1.706l1.139-1.515l1.134-1.516l1.14-1.327l1.322-1.325
	l1.329-1.327l1.328-1.327l3.029-2.272l1.518-1.137l1.517-1.137l1.706-0.947l1.701-0.759l1.706-0.947l1.707-0.758l1.706-0.568
	l1.895-0.567l1.895-0.568l1.896-0.568v9.282v19.516l0.189,0.381l0.189,0.188l0.567,0.19l0.566,0.188l0.573,0.19h4.735h0.378
	l0.378,0.189l0.378,0.378v0.381v13.072l-0.378-0.379h-0.378H62.023l-0.761-0.189h-0.378l-0.189-0.19l-0.378-0.378l-0.189-0.189
	v-0.38l-0.189-0.566V37.033l-2.273,1.138l-2.084,1.325l-2.084,1.517l-2.084,1.516l-1.895,1.704l-1.707,1.896l-1.517,2.084
	l-1.517,2.084l-1.323,2.084l-1.139,2.273l-0.567,1.138l-0.378,1.326L40.42,59.58l-0.567,2.464l-0.567,2.652l-0.189,1.325v1.327
	l-0.189,2.652v1.705l0.189,1.704l0.189,1.518l0.189,1.706l0.378,1.704l0.378,1.514l0.567,1.518l0.195,0.756l0.378,0.762l0.567,1.514
	l0.566,1.515l1.518,2.843l1.895,2.465l0.945,1.325l0.95,1.326l1.134,1.136l1.14,1.137l2.273,2.084l1.328,0.948l1.323,0.947
	l2.657,1.518l1.511,0.756l1.329,0.758l1.517,0.57l1.517,0.566l1.701,0.378l1.518,0.57l1.517,0.188l1.706,0.381V84.59h-7.958
	L61.262,84.4l-0.189-0.188h-0.378l-0.378-0.381l-0.189-0.188v-0.378l-0.189-0.57V69.812l0.189,0.189l0.189,0.188l0.567,0.38
	l0.567,0.19l0.572,0.188h10.42h0.378l0.378,0.189l0.378,0.379v0.38V84.4h2.846V71.896l0.188-0.38l0.189-0.379l0.378-0.189h0.378
	h10.42l0.573-0.188l0.566-0.19l0.567-0.38L90.062,69.812L90.062,69.812z"/>
</svg>
