<?xml version="1.0" encoding="utf-8"?>
<!-- Generator: Adobe Illustrator 16.0.0, SVG Export Plug-In . SVG Version: 6.00 Build 0)  -->
<!DOCTYPE svg PUBLIC "-//W3C//DTD SVG 1.1//EN" "http://www.w3.org/Graphics/SVG/1.1/DTD/svg11.dtd">
<svg version="1.1" id="图层_1" xmlns="http://www.w3.org/2000/svg" xmlns:xlink="http://www.w3.org/1999/xlink" x="0px" y="0px"
	 width="150px" height="140px" viewBox="0 0 150 140" enable-background="new 0 0 150 140" xml:space="preserve">
<path fill="#FFFFFF" d="M56.521,45.933h-7.142v6.521v6.834v6.831h7.142h8.077v6.836H49.378v0.312v6.209v7.456v6.516h7.142h15.219
	v-6.516H56.521v-7.456h8.077h7.142v-6.521v-6.836v-6.831h-7.142h-8.077v-6.834h15.219v-6.521H56.521z M93.481,45.933H78.263v6.521
	h15.219v6.834h-8.074h-7.145v6.831v6.836v6.521h7.145h8.074v7.456H78.263v6.516h15.219h7.142v-6.516v-7.456v-6.209v-0.312H85.407
	v-6.836h8.074h7.142v-6.831v-6.834v-6.521H93.481z M69.567,106.183l-1.867-0.307l-3.414-0.936l-3.418-1.242l-3.105-1.554
	l-3.107-1.859l-2.795-2.178l-2.792-2.171l-2.175-2.796l-1.243-1.242l-0.928-1.553l-1.867-2.796l-1.549-3.419l-1.246-3.102
	l-0.928-3.731l-0.312-3.413l-0.311-3.728v-1.863l0.311-1.864v-1.861l0.312-1.867l0.928-3.413l1.246-3.417l1.549-3.106l1.867-3.106
	l2.171-2.795l2.175-2.486l2.792-2.485l1.246-1.239l1.549-0.933l3.107-1.862l3.105-1.554l3.418-1.243l3.414-0.932l3.731-0.311
	l3.724-0.311h1.865l1.86,0.311h1.865l1.554,0.311l3.726,0.932l3.107,1.243l3.416,1.554l2.793,1.862l2.795,2.172l2.796,2.485
	l2.174,2.486l1.242,1.244l0.933,1.551l1.865,3.106l1.549,3.106l1.247,3.417l0.93,3.413l0.621,3.729v3.728v1.862v1.865l-0.312,1.859
	l-0.31,1.554l-0.93,3.731l-1.247,3.102l-1.549,3.419l-1.865,2.796l-2.175,2.795l-2.174,2.796l-2.796,2.171l-1.239,1.242
	l-1.556,0.936l-2.793,1.859l-3.416,1.554l-3.107,1.242l-3.726,0.936l-3.419,0.618h-3.726h-1.862h-1.861L69.567,106.183z
	 M75.155,24.502l-4.659,0.308l-2.482,0.313l-2.174,0.311l-2.175,0.622l-2.174,0.621l-4.037,1.55l-4.036,1.864l-1.867,0.933
	l-1.861,1.244l-1.864,1.24l-1.863,1.553l-1.554,1.243l-1.554,1.554L40.06,40.96l-1.551,1.867l-1.245,1.861l-2.174,3.727l-0.93,1.864
	l-0.931,2.175l-0.932,1.863l-0.622,2.175l-1.242,4.347l-0.311,2.174l-0.311,2.485L29.5,70.157l0.312,4.657l0.311,2.172l0.311,2.178
	l0.621,2.171l0.621,2.178l1.554,4.349l1.861,3.726l0.934,2.172l1.24,1.865l1.245,1.554l1.551,1.865l1.246,1.549l1.549,1.553
	l3.107,3.107l1.863,1.242l1.864,1.242l3.729,2.171l1.864,1.248l2.172,0.93l1.863,0.624l2.174,0.93l4.349,0.93l2.174,0.312
	l2.482,0.313l4.659,0.306l4.661-0.306l2.172-0.313l2.175-0.312l2.174-0.312l2.175-0.618l4.346-1.554l3.729-2.178l2.175-0.93
	l1.862-1.241l1.551-1.242l1.866-1.242l1.553-1.554l1.554-1.554l3.104-3.102l1.242-1.865l1.244-1.554l2.172-4.037l1.242-1.859
	l0.933-1.866l0.621-2.177l0.933-2.172l0.93-4.349l0.312-2.178l0.31-2.172l0.312-4.657l-0.312-4.659l-0.31-2.485l-0.312-2.174
	l-0.621-2.172l-0.309-2.175l-1.554-4.038l-2.175-4.039l-0.933-1.864l-1.239-1.862l-1.244-1.861l-1.242-1.867l-1.556-1.551
	l-1.549-1.552l-3.106-2.797l-1.866-1.553l-1.551-1.24l-4.037-2.177l-1.865-0.929l-1.863-0.936l-2.174-0.929l-2.172-0.621
	l-4.349-1.243l-2.175-0.311l-2.172-0.313L75.155,24.502z"/>
</svg>
