<?xml version="1.0" encoding="utf-8"?>
<!-- Generator: Adobe Illustrator 16.0.0, SVG Export Plug-In . SVG Version: 6.00 Build 0)  -->
<!DOCTYPE svg PUBLIC "-//W3C//DTD SVG 1.1//EN" "http://www.w3.org/Graphics/SVG/1.1/DTD/svg11.dtd">
<svg version="1.1" id="图层_1" xmlns="http://www.w3.org/2000/svg" xmlns:xlink="http://www.w3.org/1999/xlink" x="0px" y="0px"
	 width="90px" height="90px" viewBox="0 0 90 90" enable-background="new 0 0 90 90" xml:space="preserve">
<path fill-rule="evenodd" clip-rule="evenodd" fill="#FFFFFF" d="M44.637,0.298c0,0,19.588-1.66,34.859,16.103
	c0,0,9.877,10.79,10.457,26.645c0,0,0.83,11.952-4.648,22.161c-5.479,10.211-11.451,15.604-21.248,20.503
	c-9.793,4.898-25.563,5.561-35.939,0.745c-10.375-4.813-16.767-9.876-22.826-20.833c0,0-8.134-13.943-4.232-30.13
	c0,0,0.996-9.628,9.793-20.087C10.853,15.404,23.718-0.366,44.637,0.298L44.637,0.298z M49.533,10.259
	c0,0,10.377,0.829,18.756,8.549c8.387,7.719,10.543,15.438,11.457,19.589c0.912,4.15,1.576,16.018-5.063,26.144
	c-6.641,10.129-19.258,14.777-25.15,15.275V63.545h7.803c0,0,8.299-1.659,8.797-10.292V35.906c0,0-1.328-8.716-10.541-9.131h-6.059
	V10.259L49.533,10.259z M40.402,10.258v16.518h-6.972c0,0-9.463,0.582-9.795,11.04v15.272c0,0,0.249,9.381,10.044,10.457h6.723
	v16.271c0,0-16.435-0.913-25.482-16.687c0,0-7.803-11.121-4.565-24.981c3.237-13.862,10.791-19.423,12.285-20.834
	C24.133,15.902,33.805,10.152,40.402,10.258L40.402,10.258z M34.344,36.155h20.502c0,0,1.742-0.331,1.906,1.577v14.192
	c0,0,0.416,2.244-1.246,1.909H34.758c0,0-1.659,0.415-1.909-1.491v-14.61C32.849,37.732,33.098,36.155,34.344,36.155L34.344,36.155z
	"/>
</svg>
