<?xml version="1.0" encoding="utf-8"?>
<!-- Generator: Adobe Illustrator 16.0.0, SVG Export Plug-In . SVG Version: 6.00 Build 0)  -->
<!DOCTYPE svg PUBLIC "-//W3C//DTD SVG 1.1//EN" "http://www.w3.org/Graphics/SVG/1.1/DTD/svg11.dtd">
<svg version="1.1" id="图层_1" xmlns="http://www.w3.org/2000/svg" xmlns:xlink="http://www.w3.org/1999/xlink" x="0px" y="0px"
	 width="60px" height="60px" viewBox="0 0 60 60" enable-background="new 0 0 60 60" xml:space="preserve">
<g>
	<g>
		<path fill-rule="evenodd" clip-rule="evenodd" fill="#4A4A4A" d="M6,41c0,2.762,2.239,5,5,5h38c2.762,0,5-2.238,5-5V27H6V41z
			 M10,34.5c0-0.275,0.224-0.5,0.5-0.5h17c0.276,0,0.5,0.225,0.5,0.5v1c0,0.276-0.224,0.501-0.5,0.501h-17
			c-0.276,0-0.5-0.225-0.5-0.501V34.5z M10,38.5c0-0.276,0.224-0.5,0.5-0.5h13c0.276,0,0.5,0.224,0.5,0.5v1
			c0,0.276-0.224,0.5-0.5,0.5h-13c-0.276,0-0.5-0.224-0.5-0.5V38.5z M49,14H11c-2.761,0-5,2.239-5,5v2h48v-2
			C54,16.239,51.762,14,49,14z"/>
	</g>
</g>
</svg>
