<?xml version="1.0" encoding="utf-8"?>
<!-- Generator: Adobe Illustrator 16.0.0, SVG Export Plug-In . SVG Version: 6.00 Build 0)  -->
<!DOCTYPE svg PUBLIC "-//W3C//DTD SVG 1.1//EN" "http://www.w3.org/Graphics/SVG/1.1/DTD/svg11.dtd">
<svg version="1.1" id="图层_1" xmlns="http://www.w3.org/2000/svg" xmlns:xlink="http://www.w3.org/1999/xlink" x="0px" y="0px"
	 width="90px" height="90px" viewBox="0 0 90 90" enable-background="new 0 0 90 90" xml:space="preserve">
<path fill-rule="evenodd" clip-rule="evenodd" fill="#FFFFFF" d="M0,25.354h20.136c0,0,3.798,0,4.516,1.076h-3.728v1.146l5.732,0.07
	c0,0,0.932,0.646,0.932,1.146l-6.664,0.072v1.074h7.381c0,0,0.862,0.431,0.647,1.362H5.95v1.219l23.357-0.072
	c0,0,0.144,0.932,0.144,1.219H5.95v1.217l23.572-0.07c0,0,0.144,0.715-0.215,1.217L5.95,36.247v1.146l23.002-0.144
	c0,0,0,0.932-0.576,1.219L5.95,38.612v1.074l21.711-0.144c0,0-0.074,1.146-0.861,1.362L5.95,40.976v1.146l19.13-0.143
	c0,0-0.429,1.433-3.369,1.289l-3.58-0.07v1.074l5.802,0.072c0,0,2.437,0,2.796,1.002l-8.598,0.216v1.074h10.103
	c0,0,0.932,0.716,0.932,1.146L5.95,47.926v1.29l23.716-0.215c0,0,0.932,0.645,0.932,1.289L5.95,50.433v1.076h25.007
	c0,0,0.285,0.358,0.144,1.004L5.95,52.728v1.074h25.151c0,0,0.214,0.646,0,1.146L5.95,55.092v1.146h24.936
	c0,0,0.215,0.716-0.358,1.289H5.95v1.146l24.075-0.072c0,0-0.07,1.148-0.573,1.219h-8.527v1.219l7.381-0.072
	c0,0-0.502,1.146-1.002,1.29l-6.379,0.072v1.217l4.3-0.07c0,0-0.646,1.361-6.305,1.146L0,64.55V25.354L0,25.354z"/>
<path fill-rule="evenodd" clip-rule="evenodd" fill="#FFFFFF" d="M32.747,50.863c0,0-0.644-5.301,5.376-6.305
	c0,0,11.176-2.292,11.464,4.657l0.215,12.897l0.718,2.223l-5.732,0.143l-0.359-2.007c0,0-2.866,3.011-7.525,1.935
	c0,0-5.015-0.357-5.015-5.876c0,0-0.214-3.654,3.225-4.943c0,0,5.588-1.577,7.308-1.577c0,0,3.798-0.646,0.573-3.297
	c0,0-4.729-1.074-4.871,2.079L32.747,50.863L32.747,50.863z M51.521,44.845h5.447l-0.074,2.078c0,0,3.011-3.08,5.304-2.795
	c0,0,5.806-1.145,6.952,5.661l0.141,14.617h-5.374l-0.07-13.184c0,0-1.505-3.798-5.373-1.361c0,0-1.723,0.644-1.435,5.087
	l0.07,9.458l-5.443-0.07L51.521,44.845L51.521,44.845z M71.225,36.891l5.019,0.072l0.285,14.904l6.091-7.954h6.234l-5.661,7.81
	L90,64.191l-6.306,0.215l-4.371-8.025l-2.651,3.584l0.07,4.371h-5.373L71.225,36.891L71.225,36.891z M44.355,55.021
	c0,0-0.071,2.078,0,2.507c0,0-0.644,2.078-2.434,2.438c0,0-3.442,2.076-4.589-0.573c0,0-0.5-1.577,1.146-2.223
	C38.479,57.169,44.07,55.736,44.355,55.021L44.355,55.021z"/>
</svg>
