<?xml version="1.0" encoding="utf-8"?>
<!-- Generator: Adobe Illustrator 16.0.0, SVG Export Plug-In . SVG Version: 6.00 Build 0)  -->
<!DOCTYPE svg PUBLIC "-//W3C//DTD SVG 1.1//EN" "http://www.w3.org/Graphics/SVG/1.1/DTD/svg11.dtd">
<svg version="1.1" id="图层_1" xmlns="http://www.w3.org/2000/svg" xmlns:xlink="http://www.w3.org/1999/xlink" x="0px" y="0px"
	 width="90px" height="90px" viewBox="0 0 90 90" enable-background="new 0 0 90 90" xml:space="preserve">
<path fill-rule="evenodd" clip-rule="evenodd" fill="#FFFFFF" d="M35.604,31.63C27.175,14.996,5.848,17.539,1.167,31.695
	c0,0-0.65,4.589-1.164,9.367l-0.003,29.007l13.698,12.86L13.7,47.522C13.7,47.522,15.187,30.597,35.604,31.63L35.604,31.63z
	 M15.509,58.635c0,0,22.486,3.1,23.262-19.899c-0.359-21.594,27.362-23.025,34.893-7.497c0,0-19.644,0.259-21.713,16.54
	c0,0,0.259,20.094-15.246,22.16C36.705,69.938,19.904,72.85,15.509,58.635L15.509,58.635z M54.395,58.37
	c8.428,16.635,29.368,13.896,34.049-0.259c0,0,1.422-3.241,1.552-9.173l0.006-29.006l-13.7-12.861l-0.006,35.406
	C76.295,42.478,74.812,59.403,54.395,58.37L54.395,58.37z"/>
</svg>
