<?xml version="1.0" encoding="utf-8"?>
<!-- Generator: Adobe Illustrator 16.0.0, SVG Export Plug-In . SVG Version: 6.00 Build 0)  -->
<!DOCTYPE svg PUBLIC "-//W3C//DTD SVG 1.1//EN" "http://www.w3.org/Graphics/SVG/1.1/DTD/svg11.dtd">
<svg version="1.1" id="图层_1" xmlns="http://www.w3.org/2000/svg" xmlns:xlink="http://www.w3.org/1999/xlink" x="0px" y="0px"
	 width="150px" height="140px" viewBox="0 0 150 140" enable-background="new 0 0 150 140" xml:space="preserve">
<path fill-rule="evenodd" clip-rule="evenodd" fill="#FFFFFF" d="M71.275,88.208l12.208-30.829l12.726,30.829H71.275L71.275,88.208z
	 M45.724,88.208l12.208-30.829l12.725,30.829H45.724L45.724,88.208z M109.139,81.172h9.521l-0.518,1.762h-8.174L109.139,81.172
	L109.139,81.172z M107.274,76.829h12.208l-0.306,1.861h-11.073L107.274,76.829L107.274,76.829z M105.416,72.483H120l-0.206,1.861
	h-13.549L105.416,72.483L105.416,72.483z M103.658,68.138H120V70h-15.619L103.658,68.138L103.658,68.138z M101.794,63.793h17.794
	l0.206,1.862h-17.276L101.794,63.793L101.794,63.793z M99.93,59.447h18.829l0.418,1.862h-18.418L99.93,59.447L99.93,59.447z
	 M75.002,24.998h1.859l1.97,0.208l1.858,0.103l1.758,0.31l1.864,0.31l1.758,0.415l1.759,0.518l1.758,0.516l0.829,0.312l0.829,0.31
	l1.653,0.724l1.657,0.725l1.548,0.828l1.552,0.828l1.553,0.931l1.452,1.035l1.446,1.035l1.347,1.034l1.341,1.139l1.347,1.241
	l1.241,1.241l1.24,1.242l1.141,1.345l0.518,0.724l0.518,0.725l1.135,1.448l0.935,1.448l0.93,1.449l0.93,1.551l0.723,1.655
	l0.829,1.552l0.623,1.655l0.618,1.757l0.623,1.655H98.896L86.999,29.137L74.585,60.482L61.549,29.447L38.585,88.726l10.449,13.034
	h53.171l9.726-14.172l-0.929-2.173h6.31l-0.623,1.655l-0.724,1.55l-0.724,1.552l-0.723,1.45l-0.93,1.552l-0.829,1.449l-1.035,1.345
	l-0.929,1.344l-1.035,1.346l-1.141,1.344l-1.135,1.139l-1.241,1.24l-1.246,1.141l-1.241,1.136l-1.341,1.034l-1.347,1.035
	l-1.346,0.93l-1.447,0.935l-1.446,0.826l-1.553,0.826l-1.553,0.724l-1.552,0.623l-1.653,0.62l-1.552,0.62l-1.658,0.518l-1.758,0.412
	l-1.658,0.417l-1.753,0.309l-0.829,0.104l-0.935,0.103l-1.759,0.209l-1.758,0.103h-1.859h-2.275l-2.276-0.208l-2.281-0.31
	l-2.275-0.414l-2.17-0.518l-2.07-0.518l-2.07-0.724l-2.07-0.828l-1.964-0.93l-1.964-0.932l-0.935-0.621l-0.929-0.518l-1.864-1.138
	l-1.758-1.24l-1.758-1.344l-0.823-0.727l-0.729-0.724l-0.824-0.726l-0.723-0.724l-1.552-1.552l-1.452-1.653l-0.618-0.829
	l-0.623-0.932l-1.341-1.756l-0.518-0.829l-0.623-0.932l-0.518-0.932l-0.517-1.035l-1.035-1.858l-0.929-2.07l-0.724-1.967
	l-0.723-2.173l-0.623-2.069l-0.312-1.136l-0.206-1.034l-0.206-1.141l-0.206-1.136l-0.312-2.175L30.1,72.275L30,71.138V70l0.1-2.276
	l0.106-2.275l0.312-2.276l0.412-2.276l0.518-2.173l0.623-2.07l0.723-2.068l0.724-2.068l0.929-1.966l1.035-1.965l0.517-0.932
	l0.518-0.93l1.141-1.863l1.341-1.758l1.241-1.758l0.729-0.828l0.724-0.725l0.723-0.828l0.829-0.724l1.547-1.552l1.552-1.448
	l0.935-0.62l0.823-0.622l1.758-1.345l0.935-0.516l0.93-0.622l0.929-0.517l0.935-0.517l1.964-1.035l1.964-0.931l2.07-0.828
	l2.07-0.622l2.07-0.621l1.135-0.31l1.035-0.208l1.14-0.206l1.135-0.208l2.281-0.31l2.276-0.104l1.135-0.103H75.002L75.002,24.998z"
	/>
</svg>
