<?xml version="1.0" encoding="utf-8"?>
<!-- Generator: Adobe Illustrator 16.0.0, SVG Export Plug-In . SVG Version: 6.00 Build 0)  -->
<!DOCTYPE svg PUBLIC "-//W3C//DTD SVG 1.1//EN" "http://www.w3.org/Graphics/SVG/1.1/DTD/svg11.dtd">
<svg version="1.1" id="图层_1" xmlns="http://www.w3.org/2000/svg" xmlns:xlink="http://www.w3.org/1999/xlink" x="0px" y="0px"
	 width="150px" height="140px" viewBox="0 0 150 140" enable-background="new 0 0 150 140" xml:space="preserve">
<g>
	<path fill-rule="evenodd" clip-rule="evenodd" fill="#FFFFFF" d="M99.182,86.752l0.631-0.273l0.263-0.145l0.234-0.164l0.206-0.188
		l0.262-0.316l0.103,0.133l0.218,0.232l0.244,0.209l0.272,0.188l0.594,0.324H99.182L99.182,86.752z M101.926,85.553l0.132,0.324
		l0.312-0.092l0.061-0.027l0.058-0.041l0.056-0.051l0.183-0.232l0.15-0.234l0.121-0.244l0.097-0.25l0.026-0.127l0.005-0.117
		l-0.022-0.107l-0.053-0.094l-0.086-0.07l-0.106-0.045l-0.129-0.027l-0.148-0.008h-2.519l0.025-0.383l-0.174-0.201l-0.09-0.027
		l-0.068-0.006l-0.068,0.006l-0.063,0.023l-0.057,0.033l-0.051,0.049l-0.041,0.057l-0.096,0.201l-0.072,0.135l-0.166,0.262
		l-0.224,0.279l-0.192,0.229l-0.012-0.279l-0.192-0.189l-1.072-0.375l-0.177-0.055l-0.074-0.012l-0.07,0.002l-0.066,0.01L97,83.895
		l-0.055,0.037l-0.047,0.049l-0.037,0.061l-0.026,0.068l-0.018,0.072v0.074l0.016,0.066l0.031,0.061l0.044,0.051l0.053,0.041
		l0.06,0.033l0.125,0.049l0.103,0.027c0.109,0.031,0.22,0.066,0.326,0.1l0.325,0.115c0.119,0.047,0.236,0.096,0.351,0.146l0.07,0.02
		l0.07,0.01l0.18-0.004l-0.003,0.113l0.015,0.066l0.063,0.143l-0.31,0.129l-0.329,0.219l-0.341,0.199l-0.358,0.188
		c-0.147,0.068-0.298,0.139-0.444,0.211l-0.059,0.043l-0.05,0.051l-0.036,0.061l-0.022,0.063l-0.005,0.07l0.011,0.072l0.027,0.068
		l0.039,0.066l0.052,0.057l0.061,0.039l0.068,0.025l0.069,0.01l0.073-0.002l0.072-0.014l0.075-0.021l0.439-0.201
		c0.16-0.084,0.323-0.168,0.48-0.254l0.219-0.125l-0.006,0.252l0.014,0.076l0.091,0.178h-0.464l-0.107,0.01l-0.104,0.031
		l-0.095,0.053l-0.081,0.066l-0.068,0.08l-0.051,0.096l-0.032,0.104l-0.011,0.105v1.727l0.006,0.064l0.021,0.068l0.029,0.057
		l0.282,0.275l-0.67,0.049l-0.077,0.014l-0.068,0.023l-0.063,0.035l-0.051,0.043l-0.043,0.053l-0.027,0.064l-0.015,0.066
		l-0.002,0.08l0.023,0.076l0.031,0.063l0.043,0.053l0.053,0.043l0.061,0.031l0.067,0.02l0.071,0.01h0.077l0.679-0.051l0.601-0.123
		l0.521-0.195l0.441-0.264l0.356-0.342l0.274-0.412l0.186-0.48l0.103-0.547l0.006-0.08l-0.004-0.074l-0.051-0.201l1.47,0.002
		l0.032,0.01l0.023,0.016l0.03,0.039c0.005,0.018,0.011,0.037,0.013,0.059v1.305l0.022,0.236l-0.362-0.15
		c-0.179-0.068-0.357-0.133-0.536-0.191l-0.104-0.033l-0.253-0.068l-0.073-0.012l-0.068-0.002l-0.068,0.008
		c-0.041,0.014-0.079,0.027-0.113,0.051l-0.139,0.119l-0.007,0.188l0.011,0.064l0.025,0.061l0.037,0.053l0.048,0.047l0.056,0.035
		l0.065,0.031l0.3,0.09l0.29,0.096l0.285,0.105l0.282,0.113l0.278,0.125l0.274,0.135l0.271,0.143l0.281,0.16l0.271,0.057
		l0.227-0.186v-0.289l-0.195-0.209l-0.733-0.381l0.184-0.102l0.054-0.045l0.043-0.055l0.033-0.061l0.021-0.068l0.007-0.066v-1.572
		l-0.012-0.107l-0.032-0.102l-0.156-0.287l0.554,0.139l0.28-0.018l0.164-0.215l0.003-0.096l-0.01-0.07l-0.021-0.066l-0.034-0.059
		l-0.049-0.053l-0.056-0.039l-0.065-0.033l-0.421-0.121l-0.32-0.117l-0.373-0.17l0.01,0.023l-0.436-0.313l-0.215-0.189l-0.189-0.213
		l-0.139-0.193l0.03-0.104l0.026-0.125h1.192c-0.069,0.104-0.138,0.205-0.21,0.301c-0.056,0.074-0.115,0.146-0.166,0.221
		l-0.027,0.064l-0.019,0.066l-0.002,0.068L101.926,85.553L101.926,85.553z M102.058,85.877l0.001,0.006l-0.006-0.004L102.058,85.877
		L102.058,85.877z M98.961,85.719l-0.094-0.33l0.135-0.033c0.066-0.023,0.13-0.055,0.183-0.102c0.063-0.055,0.124-0.113,0.184-0.176
		c0.091-0.096,0.176-0.203,0.263-0.309h0.76l-0.043,0.158l-0.109,0.234l-0.154,0.213l-0.195,0.191l-0.241,0.172l-0.286,0.152
		l-0.333,0.137l-0.357,0.109L98.961,85.719L98.961,85.719z M100.027,88.971l0.058-0.146l0.119-0.18l-0.007,0.184L100.027,88.971
		L100.027,88.971z M99.753,87.441l-0.085,0.195l-0.021,0.08l-0.065,0.424l-0.134,0.357l-0.202,0.301l-0.271,0.25l-0.346,0.199
		l-0.749,0.264l0.237-0.293l0.034-0.061l0.02-0.066l0.008-0.068l0.001-1.482l0.011-0.035l0.017-0.023l0.022-0.021l0.057-0.018
		L99.753,87.441L99.753,87.441z M94.375,86.426h-2.824l0.235-0.195l0.163-0.17l0.132-0.186l0.104-0.199l0.072-0.209l0.042-0.221
		l0.015-0.23v-0.486h1.409v1.107l0.015,0.18l0.033,0.154l0.023,0.061l0.03,0.057l0.036,0.047l0.04,0.041l0.05,0.037L94.375,86.426
		L94.375,86.426z M93.498,88.043l-0.159,0.158l-0.31,0.26l-0.184-0.16l-0.114-0.111c-0.071-0.074-0.144-0.152-0.214-0.227
		l-0.131-0.156l-0.247-0.332l-0.228-0.346h2.199l-0.127,0.254l-0.099,0.172l-0.115,0.166l-0.127,0.164L93.498,88.043L93.498,88.043z
		 M90.942,86.604l-0.191,0.107c-0.103,0.068-0.203,0.143-0.306,0.215v-1.152h0.801l-0.019-0.465l-0.019-0.051l-0.032-0.049
		l-0.043-0.043l-0.051-0.029l-0.057-0.02l-0.056-0.006h-0.525v-1.148l-0.007-0.061l-0.017-0.057l-0.031-0.053L90.35,83.75
		l-0.051-0.033l-0.056-0.021l-0.061-0.016l-0.141,0.002l-0.06,0.014l-0.059,0.023l-0.047,0.035l-0.042,0.041l-0.03,0.055
		l-0.017,0.057l-0.005,0.057v1.148h-0.556l-0.058,0.006l-0.059,0.016l-0.053,0.029l-0.042,0.043l-0.036,0.051l-0.021,0.059
		l-0.013,0.061v0.137l0.014,0.059l0.021,0.057l0.034,0.053l0.042,0.039l0.054,0.033l0.057,0.016l0.06,0.006h0.557v1.498
		l-0.213,0.105l-0.272,0.141c-0.087,0.045-0.179,0.09-0.267,0.145l-0.043,0.041l-0.035,0.047l-0.023,0.055l-0.014,0.057
		l-0.001,0.064l0.01,0.061l0.02,0.068l0.032,0.063l0.038,0.051l0.042,0.041l0.05,0.033l0.055,0.023l0.058,0.01l0.058-0.002
		l0.063-0.01c0.084-0.039,0.166-0.078,0.245-0.119l0.199-0.104v1.418l-0.275-0.1l-0.3-0.006l-0.167,0.244l-0.002,0.092l0.008,0.07
		l0.02,0.064l0.031,0.063l0.044,0.059l0.055,0.051l0.065,0.041l0.076,0.035l0.248,0.064l0.217,0.031l0.189-0.008l0.166-0.049
		l0.132-0.094l0.163-0.238l0.121,0.205l0.046,0.053l0.055,0.043l0.063,0.033l0.067,0.021l0.073,0.008l0.077-0.002l0.082-0.012
		l0.284-0.074l0.273-0.08l0.264-0.088l0.254-0.094l0.246-0.102l0.237-0.113l0.4-0.213l0.172,0.107l0.238,0.129l0.257,0.117
		l0.275,0.109l0.293,0.098l0.31,0.086l0.329,0.078l0.354,0.068l0.078,0.002l0.072-0.004l0.067-0.02l0.063-0.031l0.052-0.045
		l0.042-0.057l0.028-0.064l0.02-0.076l-0.005-0.086l-0.015-0.068L95.6,89.641l-0.039-0.057l-0.053-0.051l-0.059-0.041l-0.068-0.029
		l-0.075-0.02l-0.239-0.039l-0.229-0.049l-0.227-0.061l-0.222-0.068l-0.221-0.082l-0.215-0.092l-0.315-0.154l0.266-0.26l0.166-0.189
		l0.158-0.199l0.148-0.211l0.14-0.223l0.131-0.234l0.123-0.244l0.067-0.178l0.036-0.168v-0.08l-0.007-0.076l-0.019-0.074
		l-0.027-0.07l-0.044-0.064l-0.049-0.053l-0.057-0.047l-0.403-0.223h0.876l0.07-0.01l0.067-0.018l0.06-0.029l0.054-0.039
		l0.044-0.051l0.032-0.061l0.021-0.066l0.006-0.072l-0.006-0.07l-0.016-0.064l-0.03-0.061l-0.042-0.051l-0.056-0.039l-0.063-0.027
		l-0.07-0.016l-0.075-0.004H94.54l-0.142-0.033l0.001-1.197l-0.009-0.117l-0.025-0.105l-0.045-0.096l-0.065-0.08l-0.086-0.063
		l-0.097-0.041l-0.112-0.023l-0.12-0.006h-1.589l-0.135,0.006l-0.121,0.023l-0.107,0.039L91.8,83.996l-0.069,0.082l-0.047,0.1
		l-0.025,0.109l-0.008,0.125v0.486l-0.007,0.166l-0.027,0.152l-0.049,0.141l-0.068,0.135l-0.251,0.332l-0.001-0.051l-0.346,0.232
		l-0.053,0.053l-0.045,0.059l-0.029,0.066l-0.015,0.07l0.007,0.074l0.023,0.074l0.041,0.07L90.942,86.604L90.942,86.604z
		 M91.246,85.773L91.246,85.773L91.246,85.773L91.246,85.773L91.246,85.773z M90.445,89.691v-1.988
		c0.203-0.121,0.408-0.24,0.605-0.363l0.067-0.041l0.282-0.324l-0.1,0.42L91.3,87.469l0.015,0.076l0.028,0.074l0.042,0.076
		l0.264,0.367l0.264,0.326c0.086,0.098,0.173,0.193,0.264,0.289l0.19,0.195l-0.434,0.201l-0.204,0.082l-0.44,0.15l-0.498,0.139
		l-0.074,0.029l-0.063,0.039L90.445,89.691L90.445,89.691z M73.66,85.949l-0.001,0.564l-0.021,0.033l-0.014,0.018l-0.042,0.029
		c-0.009,0-0.025,0.002-0.037,0.004h-1.931v-0.648H73.66L73.66,85.949z M71.615,84.695l0.008-0.031l0.019-0.029l0.023-0.018
		l0.03-0.012l0.026-0.006l1.848,0.002l0.036,0.014l0.028,0.025l0.021,0.039l0.004,0.023c0,0.189,0.001,0.375,0.001,0.561h-2.045
		L71.615,84.695L71.615,84.695z M72.805,88.881l-0.393-0.127l-0.255,0.16l-0.15,0.174c-0.037,0.037-0.075,0.074-0.114,0.115
		c-0.091,0.084-0.187,0.176-0.28,0.266v-2.193h0.415l0.113,0.396l0.177,0.436l0.219,0.4L72.805,88.881L72.805,88.881z
		 M70.925,87.471v1.336l-0.396-0.123l-0.236,0.131c-0.1,0.109-0.2,0.223-0.306,0.33l-0.214,0.219v-1.732H70.6l0.06-0.012l0.058-0.02
		L70.925,87.471L70.925,87.471z M70.924,86.09v0.988l-0.209-0.111l-0.058-0.02l-0.059-0.006h-0.825v-0.734h0.675l0.067-0.008
		l0.063-0.018l0.059-0.027l0.05-0.039l0.04-0.051l0.093-0.195l-0.093-0.199l-0.04-0.051l-0.05-0.041l-0.057-0.029l-0.063-0.021
		l-0.067-0.01h-1.175l0.244-0.568h1.121c0.045-0.006,0.087-0.012,0.128-0.027l0.158-0.064v0.793l-0.104,0.219L70.924,86.09
		L70.924,86.09z M73.984,87.275c-0.187,0.205-0.372,0.412-0.568,0.613l-0.062,0.064l-0.2,0.191L72.99,87.84
		c-0.051-0.109-0.101-0.217-0.144-0.326l-0.082-0.238H73.984L73.984,87.275z M74.458,87.639l-0.015-0.068l-0.028-0.061l-0.041-0.057
		l-0.064-0.068l-0.332-0.09l0.213-0.174l0.064-0.078l0.049-0.092l0.031-0.098l0.011-0.102v-2.305l-0.011-0.104l-0.031-0.1
		l-0.05-0.09l-0.064-0.078l-0.08-0.066l-0.091-0.049l-0.099-0.029l-0.101-0.012H71.45l-0.104,0.012l-0.099,0.029l-0.092,0.049
		l-0.078,0.066l-0.063,0.076l-0.102,0.207l-0.146-0.072l-0.063-0.02l-0.065-0.008h-0.902c0.013-0.07,0.026-0.143,0.043-0.213
		l0.005-0.029l0.006-0.068l-0.003-0.07l-0.017-0.068l-0.029-0.059L69.7,83.697l-0.054-0.043l-0.063-0.035l-0.074-0.025l-0.082-0.008
		l-0.072,0.004l-0.068,0.018l-0.061,0.029l-0.055,0.041l-0.043,0.055l-0.035,0.061l-0.024,0.068l-0.077,0.305l-0.085,0.285
		l-0.098,0.277l-0.108,0.264l-0.119,0.256l-0.129,0.244l-0.142,0.232l-0.154,0.229l-0.042,0.07l-0.03,0.074l-0.017,0.074l0,0.074
		l0.014,0.07l0.031,0.066l0.045,0.059l0.072,0.068l0.284,0.049l0.268-0.17l0.133-0.182h0.165v0.734h-0.614l-0.062,0.008l-0.06,0.018
		l-0.055,0.029l-0.045,0.041l-0.037,0.051l-0.024,0.061l-0.013,0.064l-0.004,0.07l0.004,0.07l0.014,0.064l0.025,0.059l0.036,0.053
		l0.044,0.039l0.054,0.031l0.059,0.02l0.062,0.012h0.616l0.002,2.113l0.023,0.178l0.021,0.072l0.028,0.07l0.037,0.063l0.046,0.051
		l0.055,0.047l0.061,0.029l0.066,0.021l0.066,0.006l0.071-0.004l0.071-0.016l0.07-0.025l0.152-0.08l0.238-0.17l0.243-0.199
		c0.127-0.119,0.252-0.236,0.371-0.359l0.22-0.227v0.453l0.014,0.188l0.038,0.162l0.064,0.131l0.095,0.102l0.122,0.059l0.143,0.018
		l0.153-0.023l0.173-0.057l0.221-0.141l0.236-0.18c0.132-0.117,0.261-0.236,0.389-0.354l0.146-0.143l0.047-0.072l0.036-0.068
		l0.021-0.072l0.026-0.273l0.26,0.283l0.349,0.305l0.391,0.27l0.441,0.242l0.296,0.063l0.249-0.162l0.027-0.299l-0.206-0.215
		l-0.346-0.188l-0.298-0.189l-0.265-0.203l-0.17-0.15c0.166-0.156,0.334-0.313,0.492-0.473c0.085-0.084,0.166-0.172,0.246-0.256
		l0.057-0.063l0.041-0.059l0.029-0.063l0.016-0.066L74.458,87.639L74.458,87.639z M78.608,84.002l-0.075,0.008l-0.068,0.018
		l-0.063,0.029l-0.056,0.041l-0.048,0.051l-0.032,0.066l-0.019,0.068l-0.005,0.076l0.005,0.078l0.019,0.072l0.033,0.063l0.048,0.055
		l0.056,0.037l0.063,0.029l0.068,0.018l0.074,0.01h3.299l0.076-0.006l0.074-0.018l0.067-0.027l0.061-0.041l0.049-0.055l0.035-0.063
		l0.021-0.074l0.007-0.078l-0.008-0.078l-0.022-0.068l-0.034-0.064l-0.049-0.053l-0.061-0.041l-0.066-0.031l-0.075-0.018
		l-0.075-0.004H78.608L78.608,84.002z M77.065,83.914l-0.207,0.377l-0.227,0.357l-0.256,0.346l-0.283,0.342l-0.043,0.057
		l-0.033,0.063l-0.021,0.066l-0.003,0.07l0.011,0.066l0.027,0.066l0.039,0.061l0.063,0.07l0.263,0.096l0.241-0.125l0.284-0.35
		l0.268-0.371l0.26-0.404l0.261-0.449l0.042-0.289l-0.192-0.238l-0.289-0.018L77.065,83.914L77.065,83.914z M76.554,87.734
		l0.197-0.234v2.418l0.009,0.076l0.018,0.072l0.028,0.066l0.04,0.061l0.051,0.047l0.063,0.037l0.07,0.021l0.078,0.008l0.08-0.008
		l0.073-0.021l0.062-0.035l0.054-0.049l0.038-0.061l0.028-0.064l0.016-0.074l0.009-0.076v-3.42l0.194-0.332
		c0.112-0.209,0.12-0.301,0.135-0.537l-0.206-0.227l-0.29,0.006l-0.197,0.215l-0.116,0.229l-0.116,0.211l-0.122,0.205l-0.129,0.201
		l-0.277,0.381l-0.309,0.373l-0.117,0.264l0.109,0.277l0.273,0.102L76.554,87.734L76.554,87.734z M77.969,85.898l0.007,0.117
		l0.019,0.074l0.032,0.063l0.047,0.057l0.053,0.039l0.063,0.029l0.066,0.018l0.073,0.01h2.487v2.713l-0.006,0.1l-0.013,0.082
		l-0.021,0.07c-0.015,0.025-0.028,0.051-0.051,0.076c-0.014,0.014-0.03,0.029-0.049,0.045l-0.064,0.023l-0.053,0.014l-0.103,0.012
		c-0.063-0.002-0.125-0.004-0.188-0.01l-0.304-0.047l-0.667-0.162c-0.034-0.008-0.066-0.012-0.103-0.014H79.16l-0.083,0.018
		l-0.05,0.023l-0.171,0.209l0.01,0.324l0.239,0.166l0.335,0.086l0.295,0.066l0.27,0.049l0.247,0.033l0.224,0.014l0.199-0.002
		l0.177-0.023l0.153-0.039l0.133-0.057l0.117-0.078l0.098-0.104l0.078-0.121l0.058-0.145l0.041-0.16l0.022-0.182l0.008-0.197v-2.783
		h0.704l0.067-0.01l0.064-0.016l0.06-0.029l0.055-0.039l0.043-0.053l0.031-0.063l0.018-0.072l0.008-0.078l-0.008-0.076l-0.018-0.07
		l-0.031-0.063l-0.042-0.053l-0.054-0.041l-0.061-0.029l-0.065-0.02l-0.07-0.006h-3.929l-0.074,0.006l-0.07,0.018l-0.063,0.029
		l-0.055,0.041l-0.044,0.051l-0.032,0.063L77.969,85.898L77.969,85.898z M56.168,84.678h0.594l-0.264,1.248l-0.022,0.23l0.005,0.125
		c0.007,0.063,0.019,0.123,0.034,0.184c0.021,0.061,0.045,0.117,0.07,0.172c0.063,0.139,0.126,0.277,0.185,0.418l0.062,0.166
		l0.083,0.316c0.009,0.053,0.017,0.107,0.023,0.162v0.117l-0.007,0.061l-0.015,0.07c-0.01,0.021-0.019,0.043-0.034,0.066
		c-0.015,0.021-0.035,0.039-0.057,0.059c-0.026,0.006-0.051,0.012-0.08,0.014l-0.019,0.002l-0.265-0.043l-0.069,0.002l-0.065,0.016
		l-0.161,0.07L56.168,84.678L56.168,84.678z M60.769,85.994l0.024-0.141l-0.012-0.195l0.424,0.221l0.294,0.02l0.233-0.207
		l0.014-0.303l-0.214-0.195l-0.281-0.125l-0.253-0.127l-0.239-0.143l-0.227-0.154l-0.215-0.166l-0.202-0.182l-0.188-0.191
		l-0.267-0.314l-0.098-0.08l-0.107-0.049l-0.113-0.012l-0.112,0.025l-0.105,0.061l-0.099,0.09c-0.122,0.152-0.246,0.303-0.373,0.449
		l-0.056,0.066l-0.176,0.184l-0.181,0.176l-0.191,0.168l-0.201,0.166l-0.546,0.393l0.135-0.631l0.01-0.004l0.027-0.252l0.003-0.158
		l-0.02-0.15l-0.015-0.045l-0.021-0.041L57.39,84.1l-0.044-0.039l-0.049-0.029l-0.119-0.039l-0.134-0.018l-1.062-0.002l-0.126,0.008
		l-0.113,0.029l-0.097,0.045l-0.077,0.066l-0.058,0.078l-0.037,0.092l-0.02,0.098l-0.006,0.102v5.477l0.005,0.064l0.019,0.064
		l0.032,0.061l0.045,0.049l0.055,0.039l0.061,0.027l0.067,0.016l0.076,0.006l0.075-0.006l0.07-0.016l0.061-0.029l0.055-0.039
		l0.042-0.051l0.031-0.057l0.019-0.064l0.006-0.064v-1.311l0.175,0.063c0.046,0.014,0.095,0.025,0.14,0.033
		c0.083,0.012,0.166,0.023,0.247,0.02c0.034,0,0.066-0.002,0.096-0.002l0.094-0.012l0.093-0.021l0.091-0.029l0.088-0.041
		l0.083-0.047l0.076-0.061l0.07-0.068l0.058-0.076l0.049-0.082l0.038-0.088l0.03-0.088l0.021-0.094l0.023-0.195l0.003-0.098
		l-0.006-0.121c-0.01-0.08-0.022-0.16-0.037-0.238c-0.024-0.111-0.056-0.219-0.086-0.33l-0.125-0.324l-0.201-0.453l-0.024-0.146
		l0.031-0.318l0.194,0.145l0.064,0.029l0.07,0.018h0.073l0.075-0.016l0.074-0.029l0.074-0.039l0.259-0.172l0.027,0.184
		c0.01,0.033,0.024,0.066,0.038,0.094l0.04,0.055l0.048,0.043l0.057,0.029l0.062,0.02l0.068,0.01h0.715L58.923,86.4l-0.036,0.061
		l-0.023,0.061l-0.01,0.07l0.002,0.072l0.012,0.072c0.054,0.215,0.106,0.434,0.156,0.652c0.044,0.229,0.087,0.463,0.127,0.693
		l0.069,0.492l0.016,0.076l0.026,0.068l0.033,0.063l0.046,0.057l0.054,0.043l0.064,0.029l0.072,0.016l0.077-0.002l0.07-0.018
		l0.204-0.092l-0.03,0.217v0.072l0.015,0.068l0.08,0.188h-1.25l0.251-0.234l0.038-0.057l0.024-0.064l0.013-0.072v-0.076
		c-0.01-0.07-0.022-0.139-0.035-0.207c-0.027-0.115-0.058-0.234-0.088-0.35l-0.075-0.242l-0.084-0.244l-0.095-0.252l-0.222-0.514
		l-0.125-0.266l-0.044-0.066l-0.046-0.055l-0.053-0.049l-0.057-0.035l-0.065-0.025l-0.069-0.008l-0.07,0.008l-0.066,0.023
		l-0.064,0.033l-0.052,0.045l-0.042,0.057l-0.024,0.064l-0.01,0.064c0.011,0.23,0.16,0.463,0.25,0.678l0.206,0.525l0.149,0.457
		l0.115,0.436l0.024,0.072l0.032,0.066l0.038,0.057l0.247,0.23H57.7l-0.066,0.006l-0.063,0.018l-0.059,0.029l-0.05,0.039
		L57.421,89.5l-0.028,0.059l-0.02,0.064l-0.008,0.076l0.005,0.072l0.017,0.066l0.026,0.059l0.039,0.053L57.5,89.99l0.056,0.029
		l0.063,0.02l0.067,0.01h3.644l0.063-0.01l0.059-0.02l0.051-0.031l0.046-0.041l0.035-0.049l0.026-0.059l0.017-0.061l0.011-0.074
		l-0.011-0.078l-0.017-0.061l-0.026-0.057l-0.034-0.051l-0.046-0.043l-0.052-0.029l-0.061-0.02l-0.063-0.008h-0.936
		c0.041-0.076,0.085-0.152,0.12-0.227l0.012-0.029l0.207-0.582l0.091-0.295l0.084-0.299l0.072-0.301l0.062-0.307l0.049-0.309
		l0.037-0.314l0.002-0.082l-0.006-0.076l-0.018-0.07l-0.028-0.066l-0.044-0.059l-0.053-0.045l-0.066-0.035l-0.074-0.016
		l-0.196-0.018l-0.125,0.152c-0.026,0.041-0.045,0.086-0.06,0.131l-0.074,0.422l-0.122,0.633l-0.066,0.293l-0.259,0.963
		c-0.034-0.27-0.065-0.545-0.104-0.814c-0.026-0.176-0.056-0.352-0.085-0.525l-0.102-0.471l-0.121-0.445l-0.026-0.066l-0.201-0.295
		h1.345l0.104-0.156L60.769,85.994L60.769,85.994z M60.641,86.23h-0.016l0.016-0.023h0.021L60.641,86.23L60.641,86.23z
		 M58.44,85.504l0.262-0.24l0.148-0.152l0.126-0.146l0.21-0.279c0.017-0.018,0.032-0.037,0.048-0.055l0.104-0.111l0.209,0.197
		l0.128,0.141l0.155,0.146c0.086,0.07,0.174,0.141,0.259,0.207c0.137,0.102,0.278,0.197,0.417,0.293H58.44L58.44,85.504z
		 M49.73,85.535l0.002-0.939l0.009-0.033l0.019-0.025l0.026-0.023l0.031-0.01l0.034-0.002l2.906,0.002l0.039,0.014l0.03,0.025
		l0.023,0.051l0,0.994l-0.101,0.051l-2.923-0.002c-0.016-0.006-0.031-0.014-0.049-0.021l-0.023-0.021l-0.021-0.035L49.73,85.535
		L49.73,85.535z M48.621,87.346l0.225,0.148l0.058,0.02l0.06,0.008h1.748l-0.225,0.254l-0.208,0.203l-0.241,0.205l-0.275,0.207
		l-0.31,0.213L49.11,88.82l-0.489,0.285V87.346L48.621,87.346z M49.042,84.254v1.535l0.009,0.104l0.032,0.1l0.048,0.09l0.064,0.078
		l0.078,0.066l0.091,0.049l0.1,0.031l0.104,0.01h1.344v0.557h-1.946l-0.072,0.008c-0.033,0.012-0.065,0.023-0.097,0.045
		l-0.175,0.158v-1.609c0.052-0.135,0.105-0.27,0.152-0.406L49.042,84.254L49.042,84.254z M52.107,87.842l-0.278-0.32h1.905
		l0.059-0.008l0.061-0.02l0.051-0.031l0.044-0.039l0.036-0.053l0.023-0.053l0.015-0.059l0.005-0.061l-0.005-0.066l-0.015-0.057
		l-0.024-0.055l-0.035-0.049l-0.045-0.043l-0.052-0.031l-0.06-0.02l-0.061-0.006h-2.13v-0.557h1.411l0.101-0.01l0.1-0.033
		l0.089-0.047l0.08-0.066l0.064-0.078l0.05-0.09l0.031-0.1l0.011-0.102v-1.439l-0.011-0.104l-0.031-0.1l-0.05-0.092l-0.064-0.078
		l-0.08-0.066l-0.09-0.047l-0.099-0.031l-0.101-0.01h-3.445l-0.104,0.01l-0.1,0.031l-0.091,0.047l-0.078,0.066l-0.143,0.174
		l-0.083-0.256l-0.026-0.051l-0.241-0.16l-0.106,0.002l-0.077,0.018l-0.074,0.031l-0.063,0.047l-0.053,0.059l-0.043,0.07
		l-0.034,0.08l-0.023,0.09l-0.067,0.334l-0.083,0.316l-0.099,0.299l-0.116,0.285l-0.132,0.271l-0.149,0.254l-0.165,0.24
		l-0.187,0.234l-0.042,0.064l-0.029,0.068l-0.019,0.072l-0.002,0.072l0.009,0.07l0.023,0.07l0.035,0.068l0.059,0.08l0.259,0.105
		l0.366-0.193v3.107l0.008,0.076l0.019,0.072l0.029,0.064l0.042,0.059l0.054,0.047l0.063,0.033l0.071,0.021l0.081,0.006l0.077-0.006
		l0.072-0.021l0.062-0.033l0.056-0.047l0.04-0.059l0.03-0.064l0.019-0.072l0.01-0.074v-0.318l0.229,0.125l0.06,0.014h0.063
		l0.063-0.012l0.062-0.021l0.339-0.191l0.309-0.189l0.284-0.197l0.259-0.197l0.233-0.207l0.389-0.395v1.666l0.008,0.064l0.019,0.064
		l0.031,0.057l0.041,0.049l0.051,0.039l0.061,0.029l0.067,0.016l0.073,0.008l0.068-0.008l0.064-0.016l0.058-0.029l0.052-0.037
		l0.041-0.051l0.029-0.057l0.019-0.063l0.009-0.066V88.26l0.274,0.285l0.244,0.225l0.263,0.217l0.282,0.211l0.301,0.201l0.32,0.195
		l0.355,0.197l0.264,0.014l0.214-0.211l0.048-0.309l-0.159-0.201l-0.419-0.201l-0.364-0.197l-0.331-0.203l-0.296-0.209l-0.263-0.215
		L52.107,87.842L52.107,87.842z M86.254,86.941l-0.012-0.109l-0.031-0.102l-0.051-0.092l-0.064-0.08l-0.081-0.066l-0.092-0.049
		l-0.101-0.031l-0.108-0.01l-0.108,0.01l-0.101,0.031l-0.092,0.051l-0.079,0.066l-0.065,0.078l-0.05,0.092l-0.031,0.102
		l-0.011,0.109l0.011,0.107l0.031,0.1l0.05,0.092l0.065,0.08l0.079,0.066l0.092,0.049l0.101,0.031l0.108,0.012l0.108-0.012
		l0.101-0.031l0.092-0.049l0.081-0.066l0.064-0.08l0.051-0.09l0.031-0.102L86.254,86.941L86.254,86.941z M65.509,86.941
		l-0.012-0.109l-0.031-0.102l-0.05-0.092l-0.065-0.08l-0.081-0.066l-0.091-0.049l-0.101-0.031l-0.108-0.01l-0.11,0.01l-0.1,0.031
		l-0.092,0.051l-0.079,0.066l-0.067,0.078l-0.049,0.094l-0.031,0.1l-0.01,0.109l0.01,0.107l0.031,0.1l0.049,0.092l0.067,0.08
		l0.079,0.066l0.092,0.049l0.1,0.031l0.11,0.012l0.108-0.012l0.101-0.031l0.091-0.049l0.081-0.066l0.065-0.08l0.05-0.092l0.031-0.1
		L65.509,86.941L65.509,86.941z"/>
	<path fill-rule="evenodd" clip-rule="evenodd" fill="#FFFFFF" d="M118.2,76.605c0,2.016-1.633,3.65-3.647,3.65H35.446
		c-2.015,0-3.647-1.635-3.647-3.65V51.791c0-2.016,1.632-3.649,3.647-3.649h79.107c2.015,0,3.647,1.633,3.647,3.649V76.605
		L118.2,76.605z M71.462,65.168h-1.726v0.671h-1.709v-1.503h2.943v-1.424h-2.943v-1.041h3.435v-1.545h-9.106v1.545h3.432v1.041
		h-2.941v1.424h2.941v1.503h-3.432v1.543h9.106V65.168L71.462,65.168z M54.885,58.988h-5.11v-1.523c0-0.162-0.129-0.291-0.291-0.291
		h-2.072c-0.16,0-0.289,0.129-0.289,0.291v1.523h-5.111c-0.942,0-1.705,0.765-1.705,1.706v5.564c0,0.939,0.763,1.702,1.705,1.702
		h5.111v2.397c0,0.162,0.129,0.289,0.289,0.289h2.072c0.162,0,0.291-0.127,0.291-0.289V67.96h5.11c0.942,0,1.706-0.763,1.706-1.702
		v-5.564C56.591,59.753,55.827,58.988,54.885,58.988L54.885,58.988z M47.123,66.076h-4.409v-5.199h4.409V66.076L47.123,66.076z
		 M54.183,66.076h-4.408v-5.199h4.408V66.076L54.183,66.076z M94.425,60.877h1.356c0.161,0,0.291-0.13,0.291-0.29V59.74h11.944
		v0.847c0,0.16,0.127,0.29,0.29,0.29h1.356c0.158,0,0.289-0.13,0.289-0.29v-0.973c0-0.826-0.669-1.495-1.495-1.495h-5.148v-0.703
		c0-0.162-0.129-0.291-0.29-0.291h-1.952c-0.159,0-0.29,0.129-0.29,0.291v0.703h-5.146c-0.827,0-1.497,0.669-1.497,1.495v0.973
		C94.134,60.747,94.264,60.877,94.425,60.877L94.425,60.877z M89.147,60.682c-0.235,0-0.415,0.121-0.491,0.27l-1.954,3.804
		c-0.076,0.148,0.019,0.269,0.169,0.269h1.961c0.234,0,0.416-0.121,0.495-0.269l1.952-3.804c0.075-0.149-0.017-0.27-0.168-0.27
		H89.147L89.147,60.682z M73.199,57.614H60.617c-0.94,0-1.705,0.762-1.705,1.702v9.251c0,0.941,0.764,1.704,1.705,1.704h12.582
		c0.941,0,1.705-0.763,1.705-1.704v-9.251C74.903,58.375,74.14,57.614,73.199,57.614L73.199,57.614z M72.63,68.461H61.186v-9.175
		H72.63V68.461L72.63,68.461z M109.767,62.166h-2.501v-1.069c0-0.163-0.132-0.298-0.299-0.298h-1.703
		c-0.165,0-0.299,0.135-0.299,0.298v1.069h-5.841v-1.069c0-0.163-0.134-0.298-0.299-0.298H97.12c-0.164,0-0.298,0.135-0.298,0.298
		v1.069h-2.505c-0.159,0-0.29,0.131-0.29,0.291v1.26c0,0.16,0.131,0.29,0.29,0.29h2.505v0.784c0,0.916,0.417,1.781,1.54,2.327
		c0.428,0.208,0.953,0.461,1.514,0.731c-0.996,0.405-1.877,0.593-2.81,0.593H94.7c-0.163,0-0.298,0.131-0.298,0.295v1.244
		c0,0.163,0.135,0.297,0.298,0.297l2.329,0.001c0.931,0,2.067-0.196,3.032-0.557c0.392-0.145,1.132-0.472,1.981-0.859
		c0.851,0.387,1.594,0.714,1.984,0.859c0.964,0.361,2.102,0.557,3.032,0.557l2.327-0.001c0.164,0,0.297-0.134,0.297-0.297v-1.244
		c0-0.165-0.133-0.295-0.297-0.295h-2.367c-0.931,0-1.812-0.188-2.809-0.593c0.56-0.27,1.088-0.523,1.513-0.731
		c1.124-0.546,1.542-1.411,1.542-2.327v-0.784h2.501c0.162,0,0.293-0.13,0.293-0.29v-1.26
		C110.06,62.297,109.929,62.166,109.767,62.166L109.767,62.166z M104.965,64.564c0,0.516-0.097,0.918-0.75,1.248
		c-0.526,0.263-1.393,0.673-2.172,1.04c-0.778-0.367-1.644-0.776-2.169-1.04c-0.653-0.33-0.75-0.732-0.75-1.248v-0.558h5.841V64.564
		L104.965,64.564z M80.428,65.025h1.962c0.15,0,0.244-0.121,0.169-0.269l-1.953-3.804c-0.076-0.149-0.257-0.27-0.494-0.27H78.15
		c-0.152,0-0.247,0.121-0.17,0.27l1.953,3.804C80.011,64.904,80.192,65.025,80.428,65.025L80.428,65.025z M92.263,66.031h-6.365
		v-6.352h5.849c0.158,0,0.289-0.131,0.289-0.292v-1.23c0-0.158-0.131-0.287-0.289-0.287H77.517c-0.162,0-0.29,0.128-0.29,0.287v1.23
		c0,0.161,0.128,0.292,0.29,0.292h5.848v6.352h-6.367c-0.16,0-0.289,0.131-0.289,0.289v1.3c0,0.158,0.129,0.289,0.289,0.289h6.367
		v2.449c0,0.162,0.13,0.289,0.29,0.289h1.951c0.162,0,0.292-0.127,0.292-0.289v-2.449h6.365c0.16,0,0.289-0.131,0.289-0.289v-1.3
		C92.552,66.162,92.423,66.031,92.263,66.031L92.263,66.031z"/>
	<path fill-rule="evenodd" clip-rule="evenodd" fill="#FFFFFF" d="M114.553,46.319H35.446c-3.021,0-5.47,2.448-5.47,5.472v36.42
		c0,3.021,2.45,5.471,5.47,5.471h79.107c3.021,0,5.471-2.449,5.471-5.471v-36.42C120.023,48.767,117.574,46.319,114.553,46.319
		L114.553,46.319z M114.578,45.343H35.421l-0.633,0.031l-0.64,0.099l-0.619,0.158l-0.593,0.217l-0.564,0.271l-0.532,0.323
		l-0.497,0.372l-0.457,0.417l-0.416,0.456L30.1,48.185l-0.323,0.531l-0.271,0.563l-0.217,0.593l-0.159,0.619l-0.098,0.642L29,51.767
		v36.468l0.031,0.633l0.098,0.641l0.159,0.619l0.217,0.592l0.271,0.564l0.323,0.533l0.372,0.494l0.416,0.459l0.457,0.416
		l0.496,0.371l0.532,0.322l0.564,0.271l0.592,0.217l0.619,0.16l0.64,0.098l0.634,0.031h79.157l0.633-0.031l0.64-0.098l0.618-0.16
		l0.595-0.217l0.563-0.271l0.532-0.322l0.495-0.371l0.459-0.416l0.415-0.459l0.371-0.494l0.323-0.533l0.272-0.564l0.216-0.592
		l0.16-0.619l0.098-0.641L121,88.234V51.767l-0.032-0.635l-0.098-0.641l-0.16-0.619l-0.216-0.593l-0.272-0.563l-0.323-0.531
		l-0.371-0.497l-0.415-0.457l-0.458-0.417l-0.496-0.371l-0.532-0.323l-0.564-0.271l-0.593-0.217l-0.619-0.158l-0.64-0.099
		L114.578,45.343L114.578,45.343z"/>
</g>
</svg>
