<?xml version="1.0" encoding="utf-8"?>
<!-- Generator: Adobe Illustrator 16.0.0, SVG Export Plug-In . SVG Version: 6.00 Build 0)  -->
<!DOCTYPE svg PUBLIC "-//W3C//DTD SVG 1.1//EN" "http://www.w3.org/Graphics/SVG/1.1/DTD/svg11.dtd">
<svg version="1.1" id="图层_1" xmlns="http://www.w3.org/2000/svg" xmlns:xlink="http://www.w3.org/1999/xlink" x="0px" y="0px"
	 width="150px" height="140px" viewBox="0 0 150 140" enable-background="new 0 0 150 140" xml:space="preserve">
<path fill="#FFFFFF" d="M124.991,69.672c0-12.818-17.372-23.21-38.799-23.21c-17.152,0-31.704,6.667-36.82,15.896v-0.008
	c-0.476,0.859-0.739,1.792-0.739,2.768c0,2.302,1.451,4.351,3.718,5.688L72.021,82.16c1.019,0.557,2.232,0.883,3.541,0.883
	c1.313,0,2.526-0.326,3.545-0.879l18.654-10.778c1.261-0.727,2.06-1.867,2.06-3.14c0-1.234-0.755-2.331-1.947-3.065l-6.935-4.01
	l-15.377,8.874l-11.629-6.721c4.491-4.049,12.863-6.773,22.454-6.773c14.337,0,25.962,6.089,25.962,13.603
	c-0.308,11.631-17.364,20.633-38.087,20.095c-20.731-0.549-37.283-10.431-36.981-22.06h-0.004
	c0.146-15.339,20.256-27.582,44.905-27.343c2.201,0.023,4.353,0.141,6.455,0.353c-5.057-1.866-11.374-2.974-18.249-2.974
	c-5.488,0-10.631,0.713-15.053,1.943l0,0C37.497,45.064,25,56.433,25,69.672c0,17.728,22.385,32.104,50,32.104
	c27.614,0,50-14.376,50-32.104H124.991L124.991,69.672z"/>
</svg>
